<svg xmlns="http://www.w3.org/2000/svg" width="440.4605712890625" height="789.9688110351562" viewBox="-257.3514404296875 -402.47576904296875 440.4605712890625 789.9688110351562"><title>Neo4j Graph Visualization</title><desc>Created using Neo4j (http://www.neo4j.com/)</desc><g class="layer relationships"><g class="relationship" transform="translate(-211.28450812189283 -373.47577788001445) rotate(381.0529530658507)"><path class="outline" fill="#A5ABB6" stroke="none" d="M 24.018736134675446,-6.953439040707552 L 24.277555179777966,-5.987513214418485 A 603.0359273546667 603.0359273546667 0 0 1 166.39502946661753,-26.373865511497684 L 166.37188041701637,-27.373597536343595 A 604.0359273546667 604.0359273546667 0 0 0 24.018736134675446,-6.953439040707552 Z M 188.40034772406042,-27.481879011433534 L 188.38702797054995,-26.481967723285265 A 603.0359273546667 603.0359273546667 0 0 1 330.69804902354053,-7.4937307196452405 L 329.95011691463867,-4.588460067799931 L 337.6016692293299,-6.2327675741818656 L 331.69529183540965,-11.367424922105652 L 330.9473597265078,-8.462154270260344 A 604.0359273546667 604.0359273546667 0 0 0 188.40034772406042,-27.481879011433534"/><text text-anchor="middle" pointer-events="none" font-size="8px" fill="#000000" x="177.388078144218" y="-24.028172856034985" font-family="sans-serif">road</text></g><g class="relationship" transform="translate(126.37635552994959 -243.50173742146515) rotate(475.0276871628948)"><path class="outline" fill="#A5ABB6" stroke="none" d="M 21.40063509461097,-12.933012701892217 L 21.90063509461097,-12.06698729810778 A 76.27191785537727 76.27191785537727 0 0 1 35.34549316548804,-18.1783455098886 L 35.02176850310798,-19.124496841847133 A 77.27191785537727 77.27191785537727 0 0 0 21.40063509461097,-12.933012701892217 Z M 81.06184370103448,-20.37006260479309 L 80.78974938446677,-19.40779201764437 A 76.27191785537727 76.27191785537727 0 0 1 94.54537171156218,-14.032314166044266 L 93.18803947213839,-11.356935839186406 L 101.01414318080116,-11.311101995198364 L 96.35514803079393,-17.599485268521413 L 94.99781579137013,-14.924106941663553 A 77.27191785537727 77.27191785537727 0 0 0 81.06184370103448,-20.37006260479309"/><text text-anchor="middle" pointer-events="none" font-size="8px" fill="#000000" x="57.960370282871935" y="-19.75740680875988" transform="rotate(180 57.960370282871935 -22.75740680875988)" font-family="sans-serif">twowheeler</text></g><g class="relationship" transform="translate(74.20973816650098 -131.77105997224493) rotate(443.1389262713128)"><path class="outline" fill="#A5ABB6" stroke="none" d="M 21.40063509461097,12.933012701892217 L 21.90063509461097,12.06698729810778 A 121.9738590677019 121.9738590677019 0 0 0 57.48704763437519,25.734300562815463 L 57.278802054640046,26.71237713370384 A 122.9738590677019 122.9738590677019 0 0 1 21.40063509461097,12.933012701892217 Z M 103.64468705465636,27.64389883841156 L 103.47589408854502,26.65824731044067 A 121.9738590677019 121.9738590677019 0 0 0 139.58253976565143,14.431295634989098 L 138.18810224673058,11.775068233988604 L 146.01280995447271,11.620312657673846 L 141.44178979087923,17.972932169656424 L 140.04735227195837,15.316704768655931 A 122.9738590677019 122.9738590677019 0 0 1 103.64468705465636,27.64389883841156"/><text text-anchor="middle" pointer-events="none" font-size="8px" fill="#000000" x="80.42747915436425" y="31.883675925770675" font-family="sans-serif">twowheeler</text></g><g class="relationship" transform="translate(94.29709631495709 35.17282528701522) rotate(439.51915995587217)"><path class="outline" fill="#A5ABB6" stroke="none" d="M 25 0.5 L 151.2350810585631 0.5 L 151.2350810585631 -0.5 L 25 -0.5 Z M 170.5710185585631 0.5 L 296.8060996171262 0.5 L 296.8060996171262 3.5 L 303.8060996171262 0 L 296.8060996171262 -3.5 L 296.8060996171262 -0.5 L 170.5710185585631 -0.5 Z"/><text text-anchor="middle" pointer-events="none" font-size="8px" fill="#000000" x="160.9030498085631" y="3" font-family="sans-serif">trek</text></g><g class="relationship" transform="translate(74.20973816650098 -131.77105997224493) rotate(443.1389262713128)"><path class="outline" fill="#A5ABB6" stroke="none" d="M 25 0.5 L 69.56815977307178 0.5 L 69.56815977307178 -0.5 L 25 -0.5 Z M 91.57987852307178 0.5 L 136.14803829614357 0.5 L 136.14803829614357 3.5 L 143.14803829614357 0 L 136.14803829614357 -3.5 L 136.14803829614357 -0.5 L 91.57987852307178 -0.5 Z"/><text text-anchor="middle" pointer-events="none" font-size="8px" fill="#000000" x="80.57401914807178" y="3" font-family="sans-serif">road</text></g><g class="relationship" transform="translate(74.20973816650098 -131.77105997224493) rotate(443.1389262713128)"><path class="outline" fill="#A5ABB6" stroke="none" d="M 21.40063509461097,-12.933012701892217 L 21.90063509461097,-12.06698729810778 A 121.9738590677019 121.9738590677019 0 0 1 70.82859010403806,-27.810815327160753 L 70.72972486671102,-28.805916158658874 A 122.9738590677019 122.9738590677019 0 0 0 21.40063509461097,-12.933012701892217 Z M 90.12053112503246,-29.19549045237511 L 90.06171401909299,-28.197221676919867 A 121.9738590677019 121.9738590677019 0 0 1 139.58253976565143,-14.431295634989098 L 138.18810224673058,-11.775068233988604 L 146.01280995447271,-11.620312657673846 L 141.44178979087923,-17.972932169656424 L 140.04735227195837,-15.316704768655931 A 122.9738590677019 122.9738590677019 0 0 0 90.12053112503246,-29.19549045237511"/><text text-anchor="middle" pointer-events="none" font-size="8px" fill="#000000" x="80.4274791543642" y="-25.883675925770675" font-family="sans-serif">trek</text></g><g class="relationship" transform="translate(126.37635552994959 -243.50173742146515) rotate(475.0276871628948)"><path class="outline" fill="#A5ABB6" stroke="none" d="M 25 0.5 L 47.14862191064165 0.5 L 47.14862191064165 -0.5 L 25 -0.5 Z M 69.16034066064165 0.5 L 91.3089625712833 0.5 L 91.3089625712833 3.5 L 98.3089625712833 0 L 91.3089625712833 -3.5 L 91.3089625712833 -0.5 L 69.16034066064165 -0.5 Z"/><text text-anchor="middle" pointer-events="none" font-size="8px" fill="#000000" x="58.15448128564165" y="3" transform="rotate(180 58.15448128564165 0)" font-family="sans-serif">road</text></g><g class="relationship" transform="translate(126.37635552994959 -243.50173742146515) rotate(475.0276871628948)"><path class="outline" fill="#A5ABB6" stroke="none" d="M 21.40063509461097,12.933012701892217 L 21.90063509461097,12.06698729810778 A 76.27191785537727 76.27191785537727 0 0 0 48.414094029130865,21.39475314513595 L 48.26171160162712,22.383074750580278 A 77.27191785537727 77.27191785537727 0 0 1 21.40063509461097,12.933012701892217 Z M 67.66508164545908,22.90801249901942 L 67.56635900682292,21.91289751037705 A 76.27191785537727 76.27191785537727 0 0 0 94.54537171156218,14.032314166044266 L 93.18803947213839,11.356935839186406 L 101.01414318080116,11.311101995198364 L 96.35514803079393,17.599485268521413 L 94.99781579137013,14.924106941663553 A 77.27191785537727 77.27191785537727 0 0 1 67.66508164545908,22.90801249901942"/><text text-anchor="middle" pointer-events="none" font-size="8px" fill="#000000" x="57.96037028287194" y="25.75740680875988" transform="rotate(180 57.96037028287194 22.75740680875988)" font-family="sans-serif">trek</text></g><g class="relationship" transform="translate(-211.28450812189283 -373.47577788001445) rotate(381.0529530658507)"><path class="outline" fill="#A5ABB6" stroke="none" d="M 24.018736134675446,6.953439040707552 L 24.277555179777966,5.987513214418485 A 603.0359273546667 603.0359273546667 0 0 0 167.7314866946799,26.40332946373826 L 167.71055386001296,27.40311034794877 A 604.0359273546667 604.0359273546667 0 0 1 24.018736134675446,6.953439040707552 Z M 187.06144883568362,27.498230150115205 L 187.05034567033908,26.498291792155328 A 603.0359273546667 603.0359273546667 0 0 0 330.69804902354053,7.4937307196452405 L 329.95011691463867,4.588460067799931 L 337.6016692293299,6.2327675741818656 L 331.69529183540965,11.367424922105652 L 330.9473597265078,8.462154270260344 A 604.0359273546667 604.0359273546667 0 0 1 187.06144883568362,27.498230150115205"/><text text-anchor="middle" pointer-events="none" font-size="8px" fill="#000000" x="177.38807814421807" y="30.028172856034985" font-family="sans-serif">trek</text></g><g class="relationship" transform="translate(-211.28450812189283 -373.47577788001445) rotate(435.2318184531472)"><path class="outline" fill="#A5ABB6" stroke="none" d="M 21.40063509461097,12.933012701892217 L 21.90063509461097,12.06698729810778 A 236.81161808961153 236.81161808961153 0 0 0 127.78780297023727,43.46260844082897 L 127.73493968054663,44.46121019959122 A 237.81161808961153 237.81161808961153 0 0 1 21.40063509461097,12.933012701892217 Z M 147.10482780394577,44.696534752840336 L 147.07624053929004,43.69694345220816 A 236.81161808961153 236.81161808961153 0 0 0 253.69489309337115,14.883053135027897 L 252.25845450304345,12.24930216422269 L 260.07971845697125,11.970321586064133 L 255.6101445471414,18.394721096101506 L 254.1737059568137,15.7609701252963 A 237.81161808961153 237.81161808961153 0 0 1 147.10482780394577,44.696534752840336"/><text text-anchor="middle" pointer-events="none" font-size="8px" fill="#000000" x="137.42356070268494" y="47.276216797709225" font-family="sans-serif">trek</text></g><g class="relationship" transform="translate(-139.3931783325116 -100.76489023931555) rotate(450.94814525199456)"><path class="outline" fill="#A5ABB6" stroke="none" d="M 24.018736134675446,-6.953439040707552 L 24.277555179777966,-5.987513214418485 A 193.4082694980586 193.4082694980586 0 0 1 49.018957939563705,-10.913679454520548 L 48.88806208421928,-11.90507557870788 A 194.4082694980586 194.4082694980586 0 0 0 24.018736134675446,-6.953439040707552 Z M 95.35829289773628,-12.43770131269136 L 95.25015452406616,-11.443565460737517 A 193.4082694980586 193.4082694980586 0 0 1 120.09796680391455,-7.085773674468897 L 119.38813157117373,-4.17096082586956 L 127.01750265610313,-5.915293606173534 L 121.0444137809023,-10.97219080593468 L 120.33457854816149,-8.057377957335342 A 194.4082694980586 194.4082694980586 0 0 0 95.35829289773628,-12.43770131269136"/><text text-anchor="middle" pointer-events="none" font-size="8px" fill="#000000" x="72.1129351710293" y="-10.065004622506308" transform="rotate(180 72.1129351710293 -13.065004622506308)" font-family="sans-serif">twowheeler</text></g><g class="relationship" transform="translate(-141.89694118138465 50.52200256084094) rotate(401.78629094634596)"><path class="outline" fill="#A5ABB6" stroke="none" d="M 24.018736134675446,-6.953439040707552 L 24.277555179777966,-5.987513214418485 A 305.5225445257927 305.5225445257927 0 0 1 77.61872888557048,-15.31224204936882 L 77.53449981643384,-16.308688467352454 A 306.5225445257927 306.5225445257927 0 0 0 24.018736134675446,-6.953439040707552 Z M 124.02892303510689,-16.699791516729306 L 123.96146856889182,-15.70206916307194 A 305.5225445257927 305.5225445257927 0 0 1 177.4519590040528,-7.275989816018811 L 176.7243595003125,-4.365560472750568 L 184.36422738896877,-6.063329197836076 L 178.42209167570658,-11.156562273709802 L 177.69449217196626,-8.24613293044156 A 306.5225445257927 306.5225445257927 0 0 0 124.02892303510689,-16.699791516729306"/><text text-anchor="middle" pointer-events="none" font-size="8px" fill="#000000" x="100.77849074618716" y="-13.887115144336576" font-family="sans-serif">twowheeler</text></g><g class="relationship" transform="translate(13.655891648700374 189.5353287769614) rotate(410.2635169044958)"><path class="outline" fill="#A5ABB6" stroke="none" d="M 24.018736134675446,6.953439040707552 L 24.277555179777966,5.987513214418485 A 327.1435051999458 327.1435051999458 0 0 0 83.16133491140542,16.116732487971092 L 83.08250959625832,17.11362093192656 A 328.1435051999458 328.1435051999458 0 0 1 24.018736134675446,6.953439040707552 Z M 129.57778693567315,17.485570223447894 L 129.51492034894613,16.487548283672368 A 327.1435051999458 327.1435051999458 0 0 0 188.55321546822665,7.301672822768251 L 187.82321756764978,4.391844122457295 L 195.46448208571505,6.0833158381406935 L 189.52654600232918,11.181444423182858 L 188.7965481017523,8.271615722871903 A 328.1435051999458 328.1435051999458 0 0 1 129.57778693567315,17.485570223447894"/><text text-anchor="middle" pointer-events="none" font-size="8px" fill="#000000" x="106.32755172500066" y="20.62417447875316" font-family="sans-serif">twowheeler</text></g><g class="relationship" transform="translate(13.655891648700374 189.5353287769614) rotate(410.2635169044958)"><path class="outline" fill="#A5ABB6" stroke="none" d="M 24.018736134675446,-6.953439040707552 L 24.277555179777966,-5.987513214418485 A 327.1435051999458 327.1435051999458 0 0 1 96.68118531361358,-16.904574474654225 L 96.64368697023059,-17.903871164453392 A 328.1435051999458 328.1435051999458 0 0 0 24.018736134675446,-6.953439040707552 Z M 116.00570240547174,-18.058761904667506 L 115.98419602949134,-17.05899319351869 A 327.1435051999458 327.1435051999458 0 0 1 188.55321546822665,-7.301672822768251 L 187.82321756764978,-4.391844122457295 L 195.46448208571505,-6.0833158381406935 L 189.52654600232918,-11.181444423182858 L 188.7965481017523,-8.271615722871903 A 328.1435051999458 328.1435051999458 0 0 0 116.00570240547174,-18.058761904667506"/><text text-anchor="middle" pointer-events="none" font-size="8px" fill="#000000" x="106.32755172500055" y="-14.624174478753162" font-family="sans-serif">trek</text></g><g class="relationship" transform="translate(-141.89694118138465 50.52200256084094) rotate(401.78629094634596)"><path class="outline" fill="#A5ABB6" stroke="none" d="M 24.018736134675446,6.953439040707552 L 24.277555179777966,5.987513214418485 A 305.5225445257927 305.5225445257927 0 0 0 91.13375324238125,16.15350751125527 L 91.09375994110843,17.15270745914023 A 306.5225445257927 306.5225445257927 0 0 1 24.018736134675446,6.953439040707552 Z M 110.4573831705765,17.31559090983734 L 110.43420453368266,16.31585957053079 A 305.5225445257927 305.5225445257927 0 0 0 177.4519590040528,7.275989816018811 L 176.7243595003125,4.365560472750568 L 184.36422738896877,6.063329197836076 L 178.42209167570658,11.156562273709802 L 177.69449217196626,8.24613293044156 A 306.5225445257927 306.5225445257927 0 0 1 110.4573831705765,17.31559090983734"/><text text-anchor="middle" pointer-events="none" font-size="8px" fill="#000000" x="100.77849074618715" y="19.887115144336576" font-family="sans-serif">trek</text></g><g class="relationship" transform="translate(-139.3931783325116 -100.76489023931555) rotate(450.94814525199456)"><path class="outline" fill="#A5ABB6" stroke="none" d="M 24.018736134675446,6.953439040707552 L 24.277555179777966,5.987513214418485 A 193.4082694980586 193.4082694980586 0 0 0 62.48300845883534,12.214237319725527 L 62.42172726140712,13.212357860963778 A 194.4082694980586 194.4082694980586 0 0 1 24.018736134675446,6.953439040707552 Z M 81.79821977617667,13.434444525200917 L 81.75983189797967,12.435181611445216 A 193.4082694980586 193.4082694980586 0 0 0 120.09796680391455,7.085773674468897 L 119.38813157117373,4.17096082586956 L 127.01750265610313,5.915293606173534 L 121.0444137809023,10.97219080593468 L 120.33457854816149,8.057377957335342 A 194.4082694980586 194.4082694980586 0 0 1 81.79821977617667,13.434444525200917"/><text text-anchor="middle" pointer-events="none" font-size="8px" fill="#000000" x="72.1129351710293" y="16.065004622506308" transform="rotate(180 72.1129351710293 13.065004622506308)" font-family="sans-serif">trek</text></g><g class="relationship" transform="translate(-139.3931783325116 -100.76489023931555) rotate(390.18657902317295)"><path class="outline" fill="#A5ABB6" stroke="none" d="M 25 0.5 L 122.00803408272083 0.5 L 122.00803408272083 -0.5 L 25 -0.5 Z M 141.34397158272083 0.5 L 238.35200566544165 0.5 L 238.35200566544165 3.5 L 245.35200566544165 0 L 238.35200566544165 -3.5 L 238.35200566544165 -0.5 L 141.34397158272083 -0.5 Z"/><text text-anchor="middle" pointer-events="none" font-size="8px" fill="#000000" x="131.67600283272083" y="3" font-family="sans-serif">trek</text></g><g class="relationship" transform="translate(-211.28450812189283 -373.47577788001445) rotate(435.2318184531472)"><path class="outline" fill="#A5ABB6" stroke="none" d="M 25 0.5 L 126.50796223184062 0.5 L 126.50796223184062 -0.5 L 25 -0.5 Z M 148.51968098184062 0.5 L 250.02764321368124 0.5 L 250.02764321368124 3.5 L 257.02764321368124 0 L 250.02764321368124 -3.5 L 250.02764321368124 -0.5 L 148.51968098184062 -0.5 Z"/><text text-anchor="middle" pointer-events="none" font-size="8px" fill="#000000" x="137.51382160684062" y="3" font-family="sans-serif">road</text></g><g class="relationship" transform="translate(-211.28450812189283 -373.47577788001445) rotate(435.2318184531472)"><path class="outline" fill="#A5ABB6" stroke="none" d="M 21.40063509461097,-12.933012701892217 L 21.90063509461097,-12.06698729810778 A 236.81161808961153 236.81161808961153 0 0 1 106.7446883875355,-41.403421040394676 L 106.6029649534294,-42.39332733304323 A 237.81161808961153 237.81161808961153 0 0 0 21.40063509461097,-12.933012701892217 Z M 168.28080333670167,-43.14265069879775 L 168.16317090384575,-42.14959349463459 A 236.81161808961153 236.81161808961153 0 0 1 253.69489309337115,-14.883053135027897 L 252.25845450304345,-12.24930216422269 L 260.07971845697125,-11.970321586064133 L 255.6101445471414,-18.394721096101506 L 254.1737059568137,-15.7609701252963 A 237.81161808961153 237.81161808961153 0 0 0 168.28080333670167,-43.14265069879775"/><text text-anchor="middle" pointer-events="none" font-size="8px" fill="#000000" x="137.42356070268497" y="-41.276216797709225" font-family="sans-serif">PublicTransport</text></g><g class="relationship" transform="translate(-139.3931783325116 -100.76489023931555) rotate(331.76108800535815)"><path class="outline" fill="#A5ABB6" stroke="none" d="M 25 0.5 L 137.6690730144239 0.5 L 137.6690730144239 -0.5 L 25 -0.5 Z M 157.0050105144239 0.5 L 269.6740835288478 0.5 L 269.6740835288478 3.5 L 276.6740835288478 0 L 269.6740835288478 -3.5 L 269.6740835288478 -0.5 L 157.0050105144239 -0.5 Z"/><text text-anchor="middle" pointer-events="none" font-size="8px" fill="#000000" x="147.3370417644239" y="3" font-family="sans-serif">trek</text></g><g class="relationship" transform="translate(-141.89694118138465 50.52200256084094) rotate(451.5617614651301)"><path class="outline" fill="#A5ABB6" stroke="none" d="M 24.018736134675446,-6.953439040707552 L 24.277555179777966,-5.987513214418485 A 153.01200128511724 153.01200128511724 0 0 1 38.82164950631234,-9.135461339319335 L 38.65788244539655,-10.1219603761962 A 154.01200128511724 154.01200128511724 0 0 0 24.018736134675446,-6.953439040707552 Z M 85.09229624162603,-10.733472797350402 L 84.9545646309528,-9.743003210022579 A 153.01200128511724 153.01200128511724 0 0 1 99.5765136635107,-6.979153781150792 L 98.8766364358014,-4.061933894660583 L 106.5000062699394,-5.832310230910804 L 100.50968330045643,-10.868780296471073 L 99.80980607274714,-7.951560409980862 A 154.01200128511724 154.01200128511724 0 0 0 85.09229624162603,-10.733472797350402"/><text text-anchor="middle" pointer-events="none" font-size="8px" fill="#000000" x="61.858492713470916" y="-8.687960467777685" transform="rotate(180 61.858492713470916 -11.687960467777685)" font-family="sans-serif">twowheeler</text></g><g class="relationship" transform="translate(-145.46210759272674 181.28358210427427) rotate(362.96865913536664)"><path class="outline" fill="#A5ABB6" stroke="none" d="M 21.40063509461097,12.933012701892217 L 21.90063509461097,12.06698729810778 A 113.02634237579217 113.02634237579217 0 0 0 53.1085695054197,24.340459705804705 L 52.884681549345245,25.315074595453325 A 114.02634237579217 114.02634237579217 0 0 1 21.40063509461097,12.933012701892217 Z M 99.21873205159162,26.295576780867734 L 99.03627486375586,25.312362981835662 A 113.02634237579217 113.02634237579217 0 0 0 130.7354910261842,14.37010591030415 L 129.3467434923646,11.710899207674593 L 137.17176458795643,11.572896115163338 L 132.58715440461035,17.915714847143562 L 131.19840687079073,15.256508144514004 A 114.02634237579217 114.02634237579217 0 0 1 99.21873205159162,26.295576780867734"/><text text-anchor="middle" pointer-events="none" font-size="8px" fill="#000000" x="76.0119460889069" y="30.684235133649338" font-family="sans-serif">twowheeler</text></g><g class="relationship" transform="translate(-145.46210759272674 181.28358210427427) rotate(362.96865913536664)"><path class="outline" fill="#A5ABB6" stroke="none" d="M 25 0.5 L 65.16005084660137 0.5 L 65.16005084660137 -0.5 L 25 -0.5 Z M 87.17176959660137 0.5 L 127.33182044320273 0.5 L 127.33182044320273 3.5 L 134.33182044320273 0 L 127.33182044320273 -3.5 L 127.33182044320273 -0.5 L 87.17176959660137 -0.5 Z"/><text text-anchor="middle" pointer-events="none" font-size="8px" fill="#000000" x="76.16591022160137" y="3" font-family="sans-serif">road</text></g><g class="relationship" transform="translate(-145.46210759272674 181.28358210427427) rotate(362.96865913536664)"><path class="outline" fill="#A5ABB6" stroke="none" d="M 21.40063509461097,-12.933012701892217 L 21.90063509461097,-12.06698729810778 A 113.02634237579217 113.02634237579217 0 0 1 66.41958403665399,-26.57143767985326 L 66.31346521520285,-27.56579113599139 A 114.02634237579217 114.02634237579217 0 0 0 21.40063509461097,-12.933012701892217 Z M 85.7067553238567,-27.97618399238516 L 85.64279686575485,-26.9782314305681 A 113.02634237579217 113.02634237579217 0 0 1 130.7354910261842,-14.37010591030415 L 129.3467434923646,-11.710899207674593 L 137.17176458795643,-11.572896115163338 L 132.58715440461035,-17.915714847143562 L 131.19840687079073,-15.256508144514004 A 114.02634237579217 114.02634237579217 0 0 0 85.7067553238567,-27.97618399238516"/><text text-anchor="middle" pointer-events="none" font-size="8px" fill="#000000" x="76.01194608890691" y="-24.684235133649352" font-family="sans-serif">trek</text></g><g class="relationship" transform="translate(-141.89694118138465 50.52200256084094) rotate(451.5617614651301)"><path class="outline" fill="#A5ABB6" stroke="none" d="M 24.018736134675446,6.953439040707552 L 24.277555179777966,5.987513214418485 A 153.01200128511724 153.01200128511724 0 0 0 52.2397958167313,10.757872896026726 L 52.16372217984581,11.754975098296399 A 154.01200128511724 154.01200128511724 0 0 1 24.018736134675446,6.953439040707552 Z M 71.54813627634631,12.010255805593033 L 71.49834690298097,11.011496065565495 A 153.01200128511724 153.01200128511724 0 0 0 99.5765136635107,6.979153781150792 L 98.8766364358014,4.061933894660583 L 106.5000062699394,5.832310230910804 L 100.50968330045643,10.868780296471073 L 99.80980607274714,7.951560409980862 A 154.01200128511724 154.01200128511724 0 0 1 71.54813627634631,12.010255805593033"/><text text-anchor="middle" pointer-events="none" font-size="8px" fill="#000000" x="61.858492713470945" y="14.687960467777685" transform="rotate(180 61.858492713470945 11.687960467777685)" font-family="sans-serif">trek</text></g><g class="relationship" transform="translate(-145.46210759272674 181.28358210427427) rotate(418.5858426879062)"><path class="outline" fill="#A5ABB6" stroke="none" d="M 25 0.5 L 55.30882868600594 0.5 L 55.30882868600594 -0.5 L 25 -0.5 Z M 74.64476618600594 0.5 L 104.95359487201188 0.5 L 104.95359487201188 3.5 L 111.95359487201188 0 L 104.95359487201188 -3.5 L 104.95359487201188 -0.5 L 74.64476618600594 -0.5 Z"/><text text-anchor="middle" pointer-events="none" font-size="8px" fill="#000000" x="64.97679743600594" y="3" font-family="sans-serif">trek</text></g><g class="relationship" transform="translate(-74.07908348525181 298.1627976117323) rotate(374.80946550721853)"><path class="outline" fill="#A5ABB6" stroke="none" d="M 25 0.5 L 104.84643915890926 0.5 L 104.84643915890926 -0.5 L 25 -0.5 Z M 124.18237665890926 0.5 L 204.02881581781853 0.5 L 204.02881581781853 3.5 L 211.02881581781853 0 L 204.02881581781853 -3.5 L 204.02881581781853 -0.5 L 124.18237665890926 -0.5 Z"/><text text-anchor="middle" pointer-events="none" font-size="8px" fill="#000000" x="114.51440790890926" y="3" font-family="sans-serif">trek</text></g></g><g class="layer nodes"><g class="node" aria-label="graph-node1" transform="translate(-211.28450812189283,-373.47577788001445)"><circle class="outline" cx="0" cy="0" r="25" fill="#57C7E3" stroke="#23b3d7" stroke-width="2px"/><text class="caption" text-anchor="middle" pointer-events="none" x="0" y="5" font-size="10px" fill="#2A2C34" font-family="sans-serif"> Darjeeling</text></g><g class="node" aria-label="graph-node3" transform="translate(154.1091323299318,358.49305585289073)"><circle class="outline" cx="0" cy="0" r="25" fill="#D9C8AE" stroke="#c0a378" stroke-width="2px"/><text class="caption" text-anchor="middle" pointer-events="none" x="0" y="5" font-size="10px" fill="#2A2C34" font-family="sans-serif"> Sandakp…</text></g><g class="node" aria-label="graph-node6" transform="translate(126.37635552994959,-243.50173742146515)"><circle class="outline" cx="0" cy="0" r="25" fill="#F16667" stroke="#eb2728" stroke-width="2px"/><text class="caption" text-anchor="middle" pointer-events="none" x="0" y="5" font-size="10px" fill="#FFFFFF" font-family="sans-serif"> Tumbling</text></g><g class="node" aria-label="graph-node7" transform="translate(74.20973816650098,-131.77105997224493)"><circle class="outline" cx="0" cy="0" r="25" fill="#F16667" stroke="#eb2728" stroke-width="2px"/><text class="caption" text-anchor="middle" pointer-events="none" x="0" y="5" font-size="10px" fill="#FFFFFF" font-family="sans-serif"> Gairibus</text></g><g class="node" aria-label="graph-node2" transform="translate(94.29709631495709,35.17282528701522)"><circle class="outline" cx="0" cy="0" r="25" fill="#F16667" stroke="#eb2728" stroke-width="2px"/><text class="caption" text-anchor="middle" pointer-events="none" x="0" y="5" font-size="10px" fill="#FFFFFF" font-family="sans-serif"> BhikeBh…</text></g><g class="node" aria-label="graph-node0" transform="translate(-139.3931783325116,-100.76489023931555)"><circle class="outline" cx="0" cy="0" r="25" fill="#57C7E3" stroke="#23b3d7" stroke-width="2px"/><text class="caption" text-anchor="middle" pointer-events="none" x="0" y="5" font-size="10px" fill="#2A2C34" font-family="sans-serif"> Rimbik</text></g><g class="node" aria-label="graph-node4" transform="translate(-141.89694118138465,50.52200256084094)"><circle class="outline" cx="0" cy="0" r="25" fill="#F16667" stroke="#eb2728" stroke-width="2px"/><text class="caption" text-anchor="middle" pointer-events="none" x="0" y="5" font-size="10px" fill="#FFFFFF" font-family="sans-serif"> Sirikhola</text></g><g class="node" aria-label="graph-node5" transform="translate(13.655891648700374,189.5353287769614)"><circle class="outline" cx="0" cy="0" r="25" fill="#F16667" stroke="#eb2728" stroke-width="2px"/><text class="caption" text-anchor="middle" pointer-events="none" x="0" y="5" font-size="10px" fill="#FFFFFF" font-family="sans-serif"> Gurdum</text></g><g class="node" aria-label="graph-node8" transform="translate(-145.46210759272674,181.28358210427427)"><circle class="outline" cx="0" cy="0" r="25" fill="#F16667" stroke="#eb2728" stroke-width="2px"/><text class="caption" text-anchor="middle" pointer-events="none" x="0" y="5" font-size="10px" fill="#FFFFFF" font-family="sans-serif"> Rammam</text></g><g class="node" aria-label="graph-node9" transform="translate(-74.07908348525181,298.1627976117323)"><circle class="outline" cx="0" cy="0" r="25" fill="#D9C8AE" stroke="#c0a378" stroke-width="2px"/><text class="caption" text-anchor="middle" pointer-events="none" x="0" y="5" font-size="10px" fill="#2A2C34" font-family="sans-serif"> Sabargr…</text></g></g></svg>