<svg xmlns="http://www.w3.org/2000/svg" width="234.25009155273438" height="359.739501953125" viewBox="-212.48684692382812 -217.15040588378906 234.25009155273438 359.739501953125"><title>Neo4j Graph Visualization</title><desc>Created using Neo4j (http://www.neo4j.com/)</desc><g class="layer relationships"><g class="relationship" transform="translate(-183.48684219199615 -188.15041105422705) rotate(403.2287011925718)"><path class="outline" fill="#A5ABB6" stroke="none" d="M 21.40063509461097,12.933012701892217 L 21.90063509461097,12.06698729810778 A 106.98151016374399 106.98151016374399 0 0 0 42.84775679752598,21.329789665790045 L 42.543558124978304,22.282398277770966 A 107.98151016374399 107.98151016374399 0 0 1 21.40063509461097,12.933012701892217 Z M 103.69382340727645,23.62470579750739 L 103.4317189674712,22.659666283998035 A 106.98151016374399 106.98151016374399 0 0 0 124.7651229682771,14.324962385365913 L 123.38057344987274,11.663567519682458 L 131.20580257460588,11.537912653369656 L 126.61118899281624,17.873488872943856 L 125.22663947441188,15.212094007260399 A 107.98151016374399 107.98151016374399 0 0 1 103.69382340727645,23.62470579750739"/><text text-anchor="middle" pointer-events="none" font-size="8px" fill="#000000" x="73.03263518913613" y="29.873906564945784" font-family="sans-serif">PublicTransport</text></g><g class="relationship" transform="translate(-71.72726138674341 -83.09577707227105) rotate(465.75612410058153)"><path class="outline" fill="#A5ABB6" stroke="none" d="M 25 0.5 L 63.195744533839644 0.5 L 63.195744533839644 -0.5 L 25 -0.5 Z M 82.53168203383964 0.5 L 120.72742656767929 0.5 L 120.72742656767929 3.5 L 127.72742656767929 0 L 120.72742656767929 -3.5 L 120.72742656767929 -0.5 L 82.53168203383964 -0.5 Z"/><text text-anchor="middle" pointer-events="none" font-size="8px" fill="#000000" x="72.86371328383964" y="3" transform="rotate(180 72.86371328383964 0)" font-family="sans-serif">trek</text></g><g class="relationship" transform="translate(-113.19937400993253 63.8931024409608) rotate(385.12637741402034)"><path class="outline" fill="#A5ABB6" stroke="none" d="M 25 0.5 L 45.35076940796488 0.5 L 45.35076940796488 -0.5 L 25 -0.5 Z M 64.68670690796489 0.5 L 85.03747631592977 0.5 L 85.03747631592977 3.5 L 92.03747631592977 0 L 85.03747631592977 -3.5 L 85.03747631592977 -0.5 L 64.68670690796489 -0.5 Z"/><text text-anchor="middle" pointer-events="none" font-size="8px" fill="#000000" x="55.01873815796488" y="3" font-family="sans-serif">trek</text></g><g class="relationship" transform="translate(-183.48684219199615 -188.15041105422705) rotate(403.2287011925718)"><path class="outline" fill="#A5ABB6" stroke="none" d="M 25 0.5 L 63.524077810984025 0.5 L 63.524077810984025 -0.5 L 25 -0.5 Z M 82.86001531098402 0.5 L 121.38409312196805 0.5 L 121.38409312196805 3.5 L 128.38409312196805 0 L 121.38409312196805 -3.5 L 121.38409312196805 -0.5 L 82.86001531098402 -0.5 Z"/><text text-anchor="middle" pointer-events="none" font-size="8px" fill="#000000" x="73.19204656098402" y="3" font-family="sans-serif">trek</text></g><g class="relationship" transform="translate(-183.48684219199615 -188.15041105422705) rotate(403.2287011925718)"><path class="outline" fill="#A5ABB6" stroke="none" d="M 21.40063509461097,-12.933012701892217 L 21.90063509461097,-12.06698729810778 A 106.98151016374399 106.98151016374399 0 0 1 62.1230127658857,-25.573798234816365 L 61.99898780689709,-26.566077333431195 A 107.98151016374399 107.98151016374399 0 0 0 21.40063509461097,-12.933012701892217 Z M 84.0691624673528,-27.050539032360263 L 83.9887989655115,-26.053773409171043 A 106.98151016374399 106.98151016374399 0 0 1 124.7651229682771,-14.324962385365913 L 123.38057344987274,-11.663567519682458 L 131.20580257460588,-11.537912653369656 L 126.61118899281624,-17.873488872943856 L 125.22663947441188,-15.212094007260399 A 107.98151016374399 107.98151016374399 0 0 0 84.0691624673528,-27.050539032360263"/><text text-anchor="middle" pointer-events="none" font-size="8px" fill="#000000" x="73.03263518913614" y="-23.873906564945784" font-family="sans-serif">road</text></g></g><g class="layer nodes"><g class="node" aria-label="graph-node1" transform="translate(-183.48684219199615,-188.15041105422705)"><circle class="outline" cx="0" cy="0" r="25" fill="#57C7E3" stroke="#23b3d7" stroke-width="2px"/><text class="caption" text-anchor="middle" pointer-events="none" x="0" y="5" font-size="10px" fill="#2A2C34" font-family="sans-serif"> Darjeeling</text></g><g class="node" aria-label="graph-node3" transform="translate(-7.236754604263147,113.58911989800737)"><circle class="outline" cx="0" cy="0" r="25" fill="#D9C8AE" stroke="#c0a378" stroke-width="2px"/><text class="caption" text-anchor="middle" pointer-events="none" x="0" y="5" font-size="10px" fill="#2A2C34" font-family="sans-serif"> Sandakp…</text></g><g class="node" aria-label="graph-node0" transform="translate(-71.72726138674341,-83.09577707227105)"><circle class="outline" cx="0" cy="0" r="25" fill="#57C7E3" stroke="#23b3d7" stroke-width="2px"/><text class="caption" text-anchor="middle" pointer-events="none" x="0" y="5" font-size="10px" fill="#2A2C34" font-family="sans-serif"> Rimbik</text></g><g class="node" aria-label="graph-node2" transform="translate(-113.19937400993253,63.8931024409608)"><circle class="outline" cx="0" cy="0" r="25" fill="#F16667" stroke="#eb2728" stroke-width="2px"/><text class="caption" text-anchor="middle" pointer-events="none" x="0" y="5" font-size="10px" fill="#FFFFFF" font-family="sans-serif"> BhikeBh…</text></g></g></svg>