<svg xmlns="http://www.w3.org/2000/svg" width="187.471923828125" height="361.7857666015625" viewBox="-182.48684692382812 -199.15040588378906 187.471923828125 361.7857666015625"><title>Neo4j Graph Visualization</title><desc>Created using Neo4j (http://www.neo4j.com/)</desc><g class="layer relationships"><g class="relationship" transform="translate(-153.48684219199615 -170.15041105422705) rotate(430.3342038603759)"><path class="outline" fill="#A5ABB6" stroke="none" d="M 21.40063509461097,12.933012701892217 L 21.90063509461097,12.06698729810778 A 71.66089676596893 71.66089676596893 0 0 0 26.19248468832205,14.354331448793218 L 25.75237578356926,15.252275852393623 A 72.66089676596893 72.66089676596893 0 0 1 21.40063509461097,12.933012701892217 Z M 86.00527705660464,16.94094632738262 L 85.61615175210865,16.019761493920342 A 71.66089676596893 71.66089676596893 0 0 0 90.02937563928884,13.97638900699229 L 88.67724524659336,11.298377916434756 L 96.50342324937233,11.267753272462409 L 91.83221616288283,17.547070461069 L 90.48008577018734,14.869059370511467 A 72.66089676596893 72.66089676596893 0 0 1 86.00527705660464,16.94094632738262"/><text text-anchor="middle" pointer-events="none" font-size="8px" fill="#000000" x="55.70946885258596" y="25.139403301640073" font-family="sans-serif">PublicTransport</text></g><g class="relationship" transform="translate(-113.4999097199942 -58.26081832031329) rotate(409.66486498383637)"><path class="outline" fill="#A5ABB6" stroke="none" d="M 25 0.5 L 45.07972264738242 0.5 L 45.07972264738242 -0.5 L 25 -0.5 Z M 64.41566014738243 0.5 L 84.49538279476484 0.5 L 84.49538279476484 3.5 L 91.49538279476484 0 L 84.49538279476484 -3.5 L 84.49538279476484 -0.5 L 64.41566014738243 -0.5 Z"/><text text-anchor="middle" pointer-events="none" font-size="8px" fill="#000000" x="54.74769139738242" y="3" font-family="sans-serif">trek</text></g><g class="relationship" transform="translate(-38.09741782097913 30.540298946969763) rotate(442.2217046640732)"><path class="outline" fill="#A5ABB6" stroke="none" d="M 25 0.5 L 38.858256779430775 0.5 L 38.858256779430775 -0.5 L 25 -0.5 Z M 58.194194279430775 0.5 L 72.05245105886155 0.5 L 72.05245105886155 3.5 L 79.05245105886155 0 L 72.05245105886155 -3.5 L 72.05245105886155 -0.5 L 58.194194279430775 -0.5 Z"/><text text-anchor="middle" pointer-events="none" font-size="8px" fill="#000000" x="48.526225529430775" y="3" font-family="sans-serif">trek</text></g><g class="relationship" transform="translate(-153.48684219199615 -170.15041105422705) rotate(430.3342038603759)"><path class="outline" fill="#A5ABB6" stroke="none" d="M 25 0.5 L 46.242122418675905 0.5 L 46.242122418675905 -0.5 L 25 -0.5 Z M 65.5780599186759 0.5 L 86.82018233735181 0.5 L 86.82018233735181 3.5 L 93.82018233735181 0 L 86.82018233735181 -3.5 L 86.82018233735181 -0.5 L 65.5780599186759 -0.5 Z"/><text text-anchor="middle" pointer-events="none" font-size="8px" fill="#000000" x="55.910091168675905" y="3" font-family="sans-serif">trek</text></g><g class="relationship" transform="translate(-153.48684219199615 -170.15041105422705) rotate(430.3342038603759)"><path class="outline" fill="#A5ABB6" stroke="none" d="M 21.40063509461097,-12.933012701892217 L 21.90063509461097,-12.06698729810778 A 71.66089676596893 71.66089676596893 0 0 1 44.86377926834928,-20.50304721511867 L 44.6842210324083,-21.486794560683464 A 72.66089676596893 72.66089676596893 0 0 0 21.40063509461097,-12.933012701892217 Z M 66.75396189824765,-22.105329419642686 L 66.62978398657512,-21.113069450555628 A 71.66089676596893 71.66089676596893 0 0 1 90.02937563928884,-13.97638900699229 L 88.67724524659336,-11.298377916434756 L 96.50342324937233,-11.267753272462409 L 91.83221616288283,-17.547070461069 L 90.48008577018734,-14.869059370511467 A 72.66089676596893 72.66089676596893 0 0 0 66.75396189824765,-22.105329419642686"/><text text-anchor="middle" pointer-events="none" font-size="8px" fill="#000000" x="55.70946885258593" y="-19.139403301640073" font-family="sans-serif">road</text></g></g><g class="layer nodes"><g class="node" aria-label="graph-node1" transform="translate(-153.48684219199615,-170.15041105422705)"><circle class="outline" cx="0" cy="0" r="25" fill="#57C7E3" stroke="#23b3d7" stroke-width="2px"/><text class="caption" text-anchor="middle" pointer-events="none" x="0" y="5" font-size="10px" fill="#2A2C34" font-family="sans-serif"> Darjeeling</text></g><g class="node" aria-label="graph-node3" transform="translate(-24.014933108867325,133.63538222299178)"><circle class="outline" cx="0" cy="0" r="25" fill="#D9C8AE" stroke="#c0a378" stroke-width="2px"/><text class="caption" text-anchor="middle" pointer-events="none" x="0" y="5" font-size="10px" fill="#2A2C34" font-family="sans-serif"> Sandakp…</text></g><g class="node" aria-label="graph-node0" transform="translate(-113.4999097199942,-58.26081832031329)"><circle class="outline" cx="0" cy="0" r="25" fill="#57C7E3" stroke="#23b3d7" stroke-width="2px"/><text class="caption" text-anchor="middle" pointer-events="none" x="0" y="5" font-size="10px" fill="#2A2C34" font-family="sans-serif"> Rimbik</text></g><g class="node" aria-label="graph-node2" transform="translate(-38.09741782097913,30.540298946969763)"><circle class="outline" cx="0" cy="0" r="25" fill="#F16667" stroke="#eb2728" stroke-width="2px"/><text class="caption" text-anchor="middle" pointer-events="none" x="0" y="5" font-size="10px" fill="#FFFFFF" font-family="sans-serif"> BhikeBh…</text></g></g></svg>