<svg xmlns="http://www.w3.org/2000/svg" width="621.4727783203125" height="575.245361328125" viewBox="-366.8936462402344 -232.86846923828125 621.4727783203125 575.245361328125"><title>Neo4j Graph Visualization</title><desc>Created using Neo4j (http://www.neo4j.com/)</desc><g class="layer relationships"><g class="relationship" transform="translate(-40.86629478144478 62.532534944196286) rotate(483.4176146959825)"><path class="outline" fill="#A5ABB6" stroke="none" d="M 25 0.5 L 34.59181197955994 0.5 L 34.59181197955994 -0.5 L 25 -0.5 Z M 80.15431197955994 0.5 L 89.74612395911988 0.5 L 89.74612395911988 3.5 L 96.74612395911988 0 L 89.74612395911988 -3.5 L 89.74612395911988 -0.5 L 80.15431197955994 -0.5 Z"/><text text-anchor="middle" pointer-events="none" font-size="8px" fill="#000000" x="57.37306197955994" y="3" transform="rotate(180 57.37306197955994 0)" font-family="sans-serif">ACTED_IN</text></g><g class="relationship" transform="translate(-40.86629478144478 62.532534944196286) rotate(333.0565916335852)"><path class="outline" fill="#A5ABB6" stroke="none" d="M 25 0.5 L 41.10147787479376 0.5 L 41.10147787479376 -0.5 L 25 -0.5 Z M 86.66397787479376 0.5 L 102.76545574958752 0.5 L 102.76545574958752 3.5 L 109.76545574958752 0 L 102.76545574958752 -3.5 L 102.76545574958752 -0.5 L 86.66397787479376 -0.5 Z"/><text text-anchor="middle" pointer-events="none" font-size="8px" fill="#000000" x="63.88272787479376" y="3" font-family="sans-serif">ACTED_IN</text></g><g class="relationship" transform="translate(-40.86629478144478 62.532534944196286) rotate(279.84309869560855)"><path class="outline" fill="#A5ABB6" stroke="none" d="M 25 0.5 L 45.30801991356003 0.5 L 45.30801991356003 -0.5 L 25 -0.5 Z M 90.87051991356003 0.5 L 111.17853982712006 0.5 L 111.17853982712006 3.5 L 118.17853982712006 0 L 111.17853982712006 -3.5 L 111.17853982712006 -0.5 L 90.87051991356003 -0.5 Z"/><text text-anchor="middle" pointer-events="none" font-size="8px" fill="#000000" x="68.08926991356003" y="3" font-family="sans-serif">ACTED_IN</text></g><g class="relationship" transform="translate(-40.86629478144478 62.532534944196286) rotate(240.81268885397805)"><path class="outline" fill="#A5ABB6" stroke="none" d="M 25 0.5 L 46.384109980324396 0.5 L 46.384109980324396 -0.5 L 25 -0.5 Z M 91.9466099803244 0.5 L 113.33071996064879 0.5 L 113.33071996064879 3.5 L 120.33071996064879 0 L 113.33071996064879 -3.5 L 113.33071996064879 -0.5 L 91.9466099803244 -0.5 Z"/><text text-anchor="middle" pointer-events="none" font-size="8px" fill="#000000" x="69.1653599803244" y="3" transform="rotate(180 69.1653599803244 0)" font-family="sans-serif">ACTED_IN</text></g><g class="relationship" transform="translate(-40.86629478144478 62.532534944196286) rotate(210.56511500388154)"><path class="outline" fill="#A5ABB6" stroke="none" d="M 25 0.5 L 56.48120058393117 0.5 L 56.48120058393117 -0.5 L 25 -0.5 Z M 102.04370058393117 0.5 L 133.52490116786234 0.5 L 133.52490116786234 3.5 L 140.52490116786234 0 L 133.52490116786234 -3.5 L 133.52490116786234 -0.5 L 102.04370058393117 -0.5 Z"/><text text-anchor="middle" pointer-events="none" font-size="8px" fill="#000000" x="79.26245058393117" y="3" transform="rotate(180 79.26245058393117 0)" font-family="sans-serif">ACTED_IN</text></g><g class="relationship" transform="translate(-233.9654702506425 242.7603014756015) rotate(328.0507950639803)"><path class="outline" fill="#A5ABB6" stroke="none" d="M 25 0.5 L 47.99478208804389 0.5 L 47.99478208804389 -0.5 L 25 -0.5 Z M 93.55728208804389 0.5 L 116.55206417608778 0.5 L 116.55206417608778 3.5 L 123.55206417608778 0 L 116.55206417608778 -3.5 L 116.55206417608778 -0.5 L 93.55728208804389 -0.5 Z"/><text text-anchor="middle" pointer-events="none" font-size="8px" fill="#000000" x="70.77603208804389" y="3" font-family="sans-serif">ACTED_IN</text></g><g class="relationship" transform="translate(-112.06883772543203 313.37686616228007) rotate(271.593922123015)"><path class="outline" fill="#A5ABB6" stroke="none" d="M 25 0.5 L 48.360355223258196 0.5 L 48.360355223258196 -0.5 L 25 -0.5 Z M 93.9228552232582 0.5 L 117.28321044651639 0.5 L 117.28321044651639 3.5 L 124.28321044651639 0 L 117.28321044651639 -3.5 L 117.28321044651639 -0.5 L 93.9228552232582 -0.5 Z"/><text text-anchor="middle" pointer-events="none" font-size="8px" fill="#000000" x="71.1416052232582" y="3" font-family="sans-serif">ACTED_IN</text></g><g class="relationship" transform="translate(-0.9464586765265445 270.0291739279524) rotate(224.70599132337765)"><path class="outline" fill="#A5ABB6" stroke="none" d="M 25 0.5 L 48.97277848733076 0.5 L 48.97277848733076 -0.5 L 25 -0.5 Z M 94.53527848733076 0.5 L 118.50805697466151 0.5 L 118.50805697466151 3.5 L 125.50805697466151 0 L 118.50805697466151 -3.5 L 118.50805697466151 -0.5 L 94.53527848733076 -0.5 Z"/><text text-anchor="middle" pointer-events="none" font-size="8px" fill="#000000" x="71.75402848733076" y="3" transform="rotate(180 71.75402848733076 0)" font-family="sans-serif">ACTED_IN</text></g><g class="relationship" transform="translate(165.91855889659934 125.13542326500384) rotate(234.98278980975095)"><path class="outline" fill="#A5ABB6" stroke="none" d="M 25 0.5 L 49.21908959505194 0.5 L 49.21908959505194 -0.5 L 25 -0.5 Z M 94.78158959505194 0.5 L 119.00067919010388 0.5 L 119.00067919010388 3.5 L 126.00067919010388 0 L 119.00067919010388 -3.5 L 119.00067919010388 -0.5 L 94.78158959505194 -0.5 Z"/><text text-anchor="middle" pointer-events="none" font-size="8px" fill="#000000" x="72.00033959505194" y="3" transform="rotate(180 72.00033959505194 0)" font-family="sans-serif">ACTED_IN</text></g><g class="relationship" transform="translate(225.5791825629664 45.27691664912366) rotate(196.66888987782943)"><path class="outline" fill="#A5ABB6" stroke="none" d="M 25 0.5 L 50.081749360926906 0.5 L 50.081749360926906 -0.5 L 25 -0.5 Z M 95.6442493609269 0.5 L 120.72599872185381 0.5 L 120.72599872185381 3.5 L 127.72599872185381 0 L 120.72599872185381 -3.5 L 120.72599872185381 -0.5 L 95.6442493609269 -0.5 Z"/><text text-anchor="middle" pointer-events="none" font-size="8px" fill="#000000" x="72.8629993609269" y="3" transform="rotate(180 72.8629993609269 0)" font-family="sans-serif">ACTED_IN</text></g><g class="relationship" transform="translate(222.03030459369728 -54.322408302078195) rotate(518.6540963028982)"><path class="outline" fill="#A5ABB6" stroke="none" d="M 25 0.5 L 50.355717084153795 0.5 L 50.355717084153795 -0.5 L 25 -0.5 Z M 95.9182170841538 0.5 L 121.27393416830759 0.5 L 121.27393416830759 3.5 L 128.2739341683076 0 L 121.27393416830759 -3.5 L 121.27393416830759 -0.5 L 95.9182170841538 -0.5 Z"/><text text-anchor="middle" pointer-events="none" font-size="8px" fill="#000000" x="73.1369670841538" y="3" transform="rotate(180 73.1369670841538 0)" font-family="sans-serif">ACTED_IN</text></g><g class="relationship" transform="translate(157.40913386108872 -130.2117544281832) rotate(480.6845200321139)"><path class="outline" fill="#A5ABB6" stroke="none" d="M 25 0.5 L 50.2781615674335 0.5 L 50.2781615674335 -0.5 L 25 -0.5 Z M 95.8406615674335 0.5 L 121.118823134867 0.5 L 121.118823134867 3.5 L 128.118823134867 0 L 121.118823134867 -3.5 L 121.118823134867 -0.5 L 95.8406615674335 -0.5 Z"/><text text-anchor="middle" pointer-events="none" font-size="8px" fill="#000000" x="73.0594115674335" y="3" transform="rotate(180 73.0594115674335 0)" font-family="sans-serif">ACTED_IN</text></g><g class="relationship" transform="translate(-50.96734973508682 -194.0932885258575) rotate(433.3412289079582)"><path class="outline" fill="#A5ABB6" stroke="none" d="M 25 0.5 L 34.02742956765664 0.5 L 34.02742956765664 -0.5 L 25 -0.5 Z M 79.58992956765664 0.5 L 88.61735913531328 0.5 L 88.61735913531328 3.5 L 95.61735913531328 0 L 88.61735913531328 -3.5 L 88.61735913531328 -0.5 L 79.58992956765664 -0.5 Z"/><text text-anchor="middle" pointer-events="none" font-size="8px" fill="#000000" x="56.80867956765664" y="3" font-family="sans-serif">ACTED_IN</text></g><g class="relationship" transform="translate(-50.96734973508682 -194.0932885258575) rotate(475.0976697458381)"><path class="outline" fill="#A5ABB6" stroke="none" d="M 25 0.5 L 45.356188885080726 0.5 L 45.356188885080726 -0.5 L 25 -0.5 Z M 90.91868888508073 0.5 L 111.27487777016145 0.5 L 111.27487777016145 3.5 L 118.27487777016145 0 L 111.27487777016145 -3.5 L 111.27487777016145 -0.5 L 90.91868888508073 -0.5 Z"/><text text-anchor="middle" pointer-events="none" font-size="8px" fill="#000000" x="68.13743888508073" y="3" transform="rotate(180 68.13743888508073 0)" font-family="sans-serif">ACTED_IN</text></g><g class="relationship" transform="translate(-50.96734973508682 -194.0932885258575) rotate(487.5201096990954)"><path class="outline" fill="#A5ABB6" stroke="none" d="M 25 0.5 L 82.43451046280092 0.5 L 82.43451046280092 -0.5 L 25 -0.5 Z M 127.99701046280092 0.5 L 185.43152092560183 0.5 L 185.43152092560183 3.5 L 192.43152092560183 0 L 185.43152092560183 -3.5 L 185.43152092560183 -0.5 L 127.99701046280092 -0.5 Z"/><text text-anchor="middle" pointer-events="none" font-size="8px" fill="#000000" x="105.21576046280092" y="3" transform="rotate(180 105.21576046280092 0)" font-family="sans-serif">ACTED_IN</text></g><g class="relationship" transform="translate(-149.5274209138404 -203.86847497289347) rotate(403.2698048276117)"><path class="outline" fill="#A5ABB6" stroke="none" d="M 25 0.5 L 65.14256781707688 0.5 L 65.14256781707688 -0.5 L 25 -0.5 Z M 110.70506781707688 0.5 L 150.84763563415376 0.5 L 150.84763563415376 3.5 L 157.84763563415376 0 L 150.84763563415376 -3.5 L 150.84763563415376 -0.5 L 110.70506781707688 -0.5 Z"/><text text-anchor="middle" pointer-events="none" font-size="8px" fill="#000000" x="87.92381781707688" y="3" font-family="sans-serif">ACTED_IN</text></g><g class="relationship" transform="translate(-149.5274209138404 -203.86847497289347) rotate(434.84563702202115)"><path class="outline" fill="#A5ABB6" stroke="none" d="M 25 0.5 L 45.993563320167254 0.5 L 45.993563320167254 -0.5 L 25 -0.5 Z M 91.55606332016725 0.5 L 112.54962664033451 0.5 L 112.54962664033451 3.5 L 119.54962664033451 0 L 112.54962664033451 -3.5 L 112.54962664033451 -0.5 L 91.55606332016725 -0.5 Z"/><text text-anchor="middle" pointer-events="none" font-size="8px" fill="#000000" x="68.77481332016725" y="3" font-family="sans-serif">ACTED_IN</text></g><g class="relationship" transform="translate(-149.5274209138404 -203.86847497289347) rotate(460.52744261506047)"><path class="outline" fill="#A5ABB6" stroke="none" d="M 25 0.5 L 66.39306039540176 0.5 L 66.39306039540176 -0.5 L 25 -0.5 Z M 111.95556039540176 0.5 L 153.34862079080352 0.5 L 153.34862079080352 3.5 L 160.34862079080352 0 L 153.34862079080352 -3.5 L 153.34862079080352 -0.5 L 111.95556039540176 -0.5 Z"/><text text-anchor="middle" pointer-events="none" font-size="8px" fill="#000000" x="89.17431039540176" y="3" transform="rotate(180 89.17431039540176 0)" font-family="sans-serif">ACTED_IN</text></g><g class="relationship" transform="translate(-225.9460867657395 -140.56016000508004) rotate(376.4870314240507)"><path class="outline" fill="#A5ABB6" stroke="none" d="M 25 0.5 L 82.98966438670844 0.5 L 82.98966438670844 -0.5 L 25 -0.5 Z M 128.55216438670845 0.5 L 186.54182877341688 0.5 L 186.54182877341688 3.5 L 193.54182877341688 0 L 186.54182877341688 -3.5 L 186.54182877341688 -0.5 L 128.55216438670845 -0.5 Z"/><text text-anchor="middle" pointer-events="none" font-size="8px" fill="#000000" x="105.77091438670844" y="3" font-family="sans-serif">ACTED_IN</text></g><g class="relationship" transform="translate(-225.9460867657395 -140.56016000508004) rotate(393.7166894033554)"><path class="outline" fill="#A5ABB6" stroke="none" d="M 25 0.5 L 42.3698244672276 0.5 L 42.3698244672276 -0.5 L 25 -0.5 Z M 87.9323244672276 0.5 L 105.3021489344552 0.5 L 105.3021489344552 3.5 L 112.3021489344552 0 L 105.3021489344552 -3.5 L 105.3021489344552 -0.5 L 87.9323244672276 -0.5 Z"/><text text-anchor="middle" pointer-events="none" font-size="8px" fill="#000000" x="65.1510744672276" y="3" font-family="sans-serif">ACTED_IN</text></g><g class="relationship" transform="translate(-225.9460867657395 -140.56016000508004) rotate(430.3108477323661)"><path class="outline" fill="#A5ABB6" stroke="none" d="M 25 0.5 L 36.87121339651387 0.5 L 36.87121339651387 -0.5 L 25 -0.5 Z M 82.43371339651387 0.5 L 94.30492679302775 0.5 L 94.30492679302775 3.5 L 101.30492679302775 0 L 94.30492679302775 -3.5 L 94.30492679302775 -0.5 L 82.43371339651387 -0.5 Z"/><text text-anchor="middle" pointer-events="none" font-size="8px" fill="#000000" x="59.65246339651387" y="3" font-family="sans-serif">ACTED_IN</text></g><g class="relationship" transform="translate(-337.89365197076046 -5.475434007803561) rotate(354.02732692564587)"><path class="outline" fill="#A5ABB6" stroke="none" d="M 25 0.5 L 51.39130629569111 0.5 L 51.39130629569111 -0.5 L 25 -0.5 Z M 96.95380629569111 0.5 L 123.34511259138222 0.5 L 123.34511259138222 3.5 L 130.34511259138222 0 L 123.34511259138222 -3.5 L 123.34511259138222 -0.5 L 96.95380629569111 -0.5 Z"/><text text-anchor="middle" pointer-events="none" font-size="8px" fill="#000000" x="74.17255629569111" y="3" font-family="sans-serif">ACTED_IN</text></g></g><g class="layer nodes"><g class="node" aria-label="graph-node105" transform="translate(-107.91643551357274,164.15141767211855)"><circle class="outline" cx="0" cy="0" r="25" fill="#F79767" stroke="#f36924" stroke-width="2px"/><text class="caption" text-anchor="middle" pointer-events="none" x="0" y="0" font-size="10px" fill="#FFFFFF" font-family="sans-serif"> Cloud</text><text class="caption" text-anchor="middle" pointer-events="none" x="0" y="10" font-size="10px" fill="#FFFFFF" font-family="sans-serif"> Atlas</text></g><g class="node" aria-label="graph-node4" transform="translate(-40.86629478144478,62.532534944196286)"><circle class="outline" cx="0" cy="0" r="25" fill="#C990C0" stroke="#b261a5" stroke-width="2px"/><text class="caption" text-anchor="middle" pointer-events="none" x="0" y="0" font-size="10px" fill="#FFFFFF" font-family="sans-serif"> Hugo</text><text class="caption" text-anchor="middle" pointer-events="none" x="0" y="10" font-size="10px" fill="#FFFFFF" font-family="sans-serif"> Weavi…</text></g><g class="node" aria-label="graph-node71" transform="translate(-233.9654702506425,242.7603014756015)"><circle class="outline" cx="0" cy="0" r="25" fill="#C990C0" stroke="#b261a5" stroke-width="2px"/><text class="caption" text-anchor="middle" pointer-events="none" x="0" y="0" font-size="10px" fill="#FFFFFF" font-family="sans-serif"> Tom</text><text class="caption" text-anchor="middle" pointer-events="none" x="0" y="10" font-size="10px" fill="#FFFFFF" font-family="sans-serif"> Hanks</text></g><g class="node" aria-label="graph-node107" transform="translate(-112.06883772543203,313.37686616228007)"><circle class="outline" cx="0" cy="0" r="25" fill="#C990C0" stroke="#b261a5" stroke-width="2px"/><text class="caption" text-anchor="middle" pointer-events="none" x="0" y="0" font-size="10px" fill="#FFFFFF" font-family="sans-serif"> Jim</text><text class="caption" text-anchor="middle" pointer-events="none" x="0" y="10" font-size="10px" fill="#FFFFFF" font-family="sans-serif"> Broad…</text></g><g class="node" aria-label="graph-node106" transform="translate(-0.9464586765265445,270.0291739279524)"><circle class="outline" cx="0" cy="0" r="25" fill="#C990C0" stroke="#b261a5" stroke-width="2px"/><text class="caption" text-anchor="middle" pointer-events="none" x="0" y="0" font-size="10px" fill="#FFFFFF" font-family="sans-serif"> Halle</text><text class="caption" text-anchor="middle" pointer-events="none" x="0" y="10" font-size="10px" fill="#FFFFFF" font-family="sans-serif"> Berry</text></g><g class="node" aria-label="graph-node116" transform="translate(79.27097727244276,1.4689293608027967)"><circle class="outline" cx="0" cy="0" r="25" fill="#F79767" stroke="#f36924" stroke-width="2px"/><text class="caption" text-anchor="middle" pointer-events="none" x="0" y="0" font-size="10px" fill="#FFFFFF" font-family="sans-serif"> V for</text><text class="caption" text-anchor="middle" pointer-events="none" x="0" y="10" font-size="10px" fill="#FFFFFF" font-family="sans-serif"> Vende…</text></g><g class="node" aria-label="graph-node119" transform="translate(165.91855889659934,125.13542326500384)"><circle class="outline" cx="0" cy="0" r="25" fill="#C990C0" stroke="#b261a5" stroke-width="2px"/><text class="caption" text-anchor="middle" pointer-events="none" x="0" y="5" font-size="10px" fill="#FFFFFF" font-family="sans-serif"> John Hurt</text></g><g class="node" aria-label="graph-node118" transform="translate(225.5791825629664,45.27691664912366)"><circle class="outline" cx="0" cy="0" r="25" fill="#C990C0" stroke="#b261a5" stroke-width="2px"/><text class="caption" text-anchor="middle" pointer-events="none" x="0" y="0" font-size="10px" fill="#FFFFFF" font-family="sans-serif"> Stephen</text><text class="caption" text-anchor="middle" pointer-events="none" x="0" y="10" font-size="10px" fill="#FFFFFF" font-family="sans-serif"> Rea</text></g><g class="node" aria-label="graph-node117" transform="translate(222.03030459369728,-54.322408302078195)"><circle class="outline" cx="0" cy="0" r="25" fill="#C990C0" stroke="#b261a5" stroke-width="2px"/><text class="caption" text-anchor="middle" pointer-events="none" x="0" y="0" font-size="10px" fill="#FFFFFF" font-family="sans-serif"> Natalie</text><text class="caption" text-anchor="middle" pointer-events="none" x="0" y="10" font-size="10px" fill="#FFFFFF" font-family="sans-serif"> Portm…</text></g><g class="node" aria-label="graph-node120" transform="translate(157.40913386108872,-130.2117544281832)"><circle class="outline" cx="0" cy="0" r="25" fill="#C990C0" stroke="#b261a5" stroke-width="2px"/><text class="caption" text-anchor="middle" pointer-events="none" x="0" y="5" font-size="10px" fill="#FFFFFF" font-family="sans-serif"> Ben Miles</text></g><g class="node" aria-label="graph-node10" transform="translate(-16.389824791194627,-78.53835746044751)"><circle class="outline" cx="0" cy="0" r="25" fill="#F79767" stroke="#f36924" stroke-width="2px"/><text class="caption" text-anchor="middle" pointer-events="none" x="0" y="-5" font-size="10px" fill="#FFFFFF" font-family="sans-serif"> The</text><text class="caption" text-anchor="middle" pointer-events="none" x="0" y="5" font-size="10px" fill="#FFFFFF" font-family="sans-serif"> Matrix</text><text class="caption" text-anchor="middle" pointer-events="none" x="0" y="15" font-size="10px" fill="#FFFFFF" font-family="sans-serif"> Rev…</text></g><g class="node" aria-label="graph-node3" transform="translate(-50.96734973508682,-194.0932885258575)"><circle class="outline" cx="0" cy="0" r="25" fill="#C990C0" stroke="#b261a5" stroke-width="2px"/><text class="caption" text-anchor="middle" pointer-events="none" x="0" y="0" font-size="10px" fill="#FFFFFF" font-family="sans-serif"> Laurence</text><text class="caption" text-anchor="middle" pointer-events="none" x="0" y="10" font-size="10px" fill="#FFFFFF" font-family="sans-serif"> Fishb…</text></g><g class="node" aria-label="graph-node2" transform="translate(-149.5274209138404,-203.86847497289347)"><circle class="outline" cx="0" cy="0" r="25" fill="#C990C0" stroke="#b261a5" stroke-width="2px"/><text class="caption" text-anchor="middle" pointer-events="none" x="0" y="5" font-size="10px" fill="#FFFFFF" font-family="sans-serif"> Carrie-A…</text></g><g class="node" aria-label="graph-node1" transform="translate(-225.9460867657395,-140.56016000508004)"><circle class="outline" cx="0" cy="0" r="25" fill="#C990C0" stroke="#b261a5" stroke-width="2px"/><text class="caption" text-anchor="middle" pointer-events="none" x="0" y="0" font-size="10px" fill="#FFFFFF" font-family="sans-serif"> Keanu</text><text class="caption" text-anchor="middle" pointer-events="none" x="0" y="10" font-size="10px" fill="#FFFFFF" font-family="sans-serif"> Reeves</text></g><g class="node" aria-label="graph-node9" transform="translate(-111.73919331033377,-64.34555779995843)"><circle class="outline" cx="0" cy="0" r="25" fill="#F79767" stroke="#f36924" stroke-width="2px"/><text class="caption" text-anchor="middle" pointer-events="none" x="0" y="-5" font-size="10px" fill="#FFFFFF" font-family="sans-serif"> The</text><text class="caption" text-anchor="middle" pointer-events="none" x="0" y="5" font-size="10px" fill="#FFFFFF" font-family="sans-serif"> Matrix</text><text class="caption" text-anchor="middle" pointer-events="none" x="0" y="15" font-size="10px" fill="#FFFFFF" font-family="sans-serif"> Rel…</text></g><g class="node" aria-label="graph-node0" transform="translate(-183.3918091089815,-21.63973288970324)"><circle class="outline" cx="0" cy="0" r="25" fill="#F79767" stroke="#f36924" stroke-width="2px"/><text class="caption" text-anchor="middle" pointer-events="none" x="0" y="0" font-size="10px" fill="#FFFFFF" font-family="sans-serif"> The</text><text class="caption" text-anchor="middle" pointer-events="none" x="0" y="10" font-size="10px" fill="#FFFFFF" font-family="sans-serif"> Matrix</text></g><g class="node" aria-label="graph-node8" transform="translate(-337.89365197076046,-5.475434007803561)"><circle class="outline" cx="0" cy="0" r="25" fill="#C990C0" stroke="#b261a5" stroke-width="2px"/><text class="caption" text-anchor="middle" pointer-events="none" x="0" y="0" font-size="10px" fill="#FFFFFF" font-family="sans-serif"> Emil</text><text class="caption" text-anchor="middle" pointer-events="none" x="0" y="10" font-size="10px" fill="#FFFFFF" font-family="sans-serif"> Eifrem</text></g></g></svg>