<svg xmlns="http://www.w3.org/2000/svg" width="470.38616943359375" height="372.2322998046875" viewBox="-254.00271606445312 -138.77340698242188 470.38616943359375 372.2322998046875"><title>Neo4j Graph Visualization</title><desc>Created using Neo4j (http://www.neo4j.com/)</desc><g class="layer relationships"><g class="relationship" transform="translate(67.7002633391392 204.45888672232655) rotate(326.38548352660086)"><path class="outline" fill="#A5ABB6" stroke="none" d="M 21.40063509461097,12.933012701892217 L 21.90063509461097,12.06698729810778 A 97.13749877301773 97.13749877301773 0 0 0 42.8291229679195,21.065460344608468 L 42.544575168538884,22.024122198375295 A 98.13749877301773 98.13749877301773 0 0 1 21.40063509461097,12.933012701892217 Z M 93.96915225892963,23.225813323429648 L 93.72969468082115,22.25490649562049 A 97.13749877301773 97.13749877301773 0 0 0 115.05566207878141,14.243836880833731 L 113.67865696250247,11.5785307239839 L 121.50421063081085,11.47504263565784 L 116.89166890048666,17.797578423300173 L 115.51466378420773,15.132272266450341 A 98.13749877301773 98.13749877301773 0 0 1 93.96915225892963,23.225813323429648"/><text text-anchor="middle" pointer-events="none" font-size="8px" fill="#000000" x="68.18841105225384" y="28.554297181707398" font-family="sans-serif">PRODUCED</text></g><g class="relationship" transform="translate(67.7002633391392 204.45888672232655) rotate(326.38548352660086)"><path class="outline" fill="#A5ABB6" stroke="none" d="M 25 0.5 L 44.912235135613045 0.5 L 44.912235135613045 -0.5 L 25 -0.5 Z M 91.80286013561305 0.5 L 111.71509527122609 0.5 L 111.71509527122609 3.5 L 118.71509527122609 0 L 111.71509527122609 -3.5 L 111.71509527122609 -0.5 L 91.80286013561305 -0.5 Z"/><text text-anchor="middle" pointer-events="none" font-size="8px" fill="#000000" x="68.35754763561305" y="3" font-family="sans-serif">DIRECTED</text></g><g class="relationship" transform="translate(67.7002633391392 204.45888672232655) rotate(326.38548352660086)"><path class="outline" fill="#A5ABB6" stroke="none" d="M 21.40063509461097,-12.933012701892217 L 21.90063509461097,-12.06698729810778 A 97.13749877301773 97.13749877301773 0 0 1 50.5471416982181,-23.016038546152117 L 50.34204847433909,-23.994780989044486 A 98.13749877301773 98.13749877301773 0 0 0 21.40063509461097,-12.933012701892217 Z M 86.08813959131808,-24.830096763740173 L 85.92898783683611,-23.84284263280665 A 97.13749877301773 97.13749877301773 0 0 1 115.05566207878141,-14.243836880833731 L 113.67865696250247,-11.5785307239839 L 121.50421063081085,-11.47504263565784 L 116.89166890048666,-17.797578423300173 L 115.51466378420773,-15.132272266450341 A 98.13749877301773 98.13749877301773 0 0 0 86.08813959131808,-24.830096763740173"/><text text-anchor="middle" pointer-events="none" font-size="8px" fill="#000000" x="68.18841105225385" y="-22.554297181707412" font-family="sans-serif">WROTE</text></g><g class="relationship" transform="translate(30.696401959741536 -2.593703703662541) rotate(227.8639460119217)"><path class="outline" fill="#A5ABB6" stroke="none" d="M 24.018736134675446,6.953439040707552 L 24.277555179777966,5.987513214418485 A 180.08380252546738 180.08380252546738 0 0 0 45.435409178677645,10.316133209870173 L 45.29407906762796,11.306095734267274 A 181.08380252546738 181.08380252546738 0 0 1 24.018736134675446,6.953439040707552 Z M 92.17918844066335,11.86753581245739 L 92.0616046747171,10.874472844672397 A 180.08380252546738 180.08380252546738 0 0 0 113.31704554530708,7.053743817296899 L 112.61020175432056,4.138204097940671 L 120.23777885563604,5.890364924887711 L 114.25950393328911,10.941130109771871 L 113.55266014230259,8.025590390415642 A 181.08380252546738 181.08380252546738 0 0 1 92.17918844066335,11.86753581245739"/><text text-anchor="middle" pointer-events="none" font-size="8px" fill="#000000" x="68.72437205468606" y="15.610773881440366" transform="rotate(180 68.72437205468606 12.610773881440366)" font-family="sans-serif">DIRECTED</text></g><g class="relationship" transform="translate(30.696401959741536 -2.593703703662541) rotate(227.8639460119217)"><path class="outline" fill="#A5ABB6" stroke="none" d="M 24.018736134675446,-6.953439040707552 L 24.277555179777966,-5.987513214418485 A 180.08380252546738 180.08380252546738 0 0 1 50.93416241029264,-11.014980676161542 L 50.82336671241339,-12.008823879756278 A 181.08380252546738 181.08380252546738 0 0 0 24.018736134675446,-6.953439040707552 Z M 86.63465867060215,-12.437657145284703 L 86.54769348949195,-11.441445793575383 A 180.08380252546738 180.08380252546738 0 0 1 113.31704554530708,-7.053743817296899 L 112.61020175432056,-4.138204097940671 L 120.23777885563604,-5.890364924887711 L 114.25950393328911,-10.941130109771871 L 113.55266014230259,-8.025590390415642 A 181.08380252546738 181.08380252546738 0 0 0 86.63465867060215,-12.437657145284703"/><text text-anchor="middle" pointer-events="none" font-size="8px" fill="#000000" x="68.72437205468603" y="-9.610773881440366" transform="rotate(180 68.72437205468603 -12.610773881440366)" font-family="sans-serif">WROTE</text></g><g class="relationship" transform="translate(109.90389784960112 -107.90760714839743) rotate(180.60677470580214)"><path class="outline" fill="#A5ABB6" stroke="none" d="M 24.018736134675446,6.953439040707552 L 24.277555179777966,5.987513214418485 A 242.18553247127724 242.18553247127724 0 0 0 61.21320587049911,12.867345900270152 L 61.106896557558656,13.861679008429633 A 243.18553247127724 243.18553247127724 0 0 1 24.018736134675446,6.953439040707552 Z M 108.01877398883185,14.32625292762296 L 107.93217759330129,13.330009451217165 A 242.18553247127724 242.18553247127724 0 0 0 144.99683455054236,7.1830106408779635 L 144.2779181413743,4.270424299388861 L 151.91268874887828,5.9909700764006395 L 145.95538976276646,11.066459096196768 L 145.2364733535984,8.153872754707665 A 243.18553247127724 243.18553247127724 0 0 1 108.01877398883185,14.32625292762296"/><text text-anchor="middle" pointer-events="none" font-size="8px" fill="#000000" x="84.55655749052426" y="17.727885693251324" transform="rotate(180 84.55655749052426 14.727885693251324)" font-family="sans-serif">DIRECTED</text></g><g class="relationship" transform="translate(109.90389784960112 -107.90760714839743) rotate(180.60677470580214)"><path class="outline" fill="#A5ABB6" stroke="none" d="M 24.018736134675446,-6.953439040707552 L 24.277555179777966,-5.987513214418485 A 242.18553247127724 242.18553247127724 0 0 1 66.73518330101157,-13.393842619047575 L 66.65167459624192,-14.39034966680373 A 243.18553247127724 243.18553247127724 0 0 0 24.018736134675446,-6.953439040707552 Z M 102.4646134655113,-14.745009473218488 L 102.40085625974207,-13.747044033580153 A 242.18553247127724 242.18553247127724 0 0 1 144.99683455054236,-7.1830106408779635 L 144.2779181413743,-4.270424299388861 L 151.91268874887828,-5.9909700764006395 L 145.95538976276646,-11.066459096196768 L 145.2364733535984,-8.153872754707665 A 243.18553247127724 243.18553247127724 0 0 0 102.4646134655113,-14.745009473218488"/><text text-anchor="middle" pointer-events="none" font-size="8px" fill="#000000" x="84.55655749052418" y="-11.727885693251324" transform="rotate(180 84.55655749052418 -14.727885693251324)" font-family="sans-serif">WROTE</text></g><g class="relationship" transform="translate(-225.00271229117837 -37.341992490447005) rotate(434.27806393608967)"><path class="outline" fill="#A5ABB6" stroke="none" d="M 21.40063509461097,12.933012701892217 L 21.90063509461097,12.06698729810778 A 96.94481915658305 96.94481915658305 0 0 0 50.453150099520386,22.986523975982564 L 50.24767347120044,23.96518599895795 A 97.94481915658305 97.94481915658305 0 0 1 21.40063509461097,12.933012701892217 Z M 85.99330677320066,24.801546586425843 L 85.83382654510073,23.814345463632122 A 96.94481915658305 96.94481915658305 0 0 0 114.86579818636277,14.24214524706809 L 113.488950390868,11.5767578178111 L 121.3145101538782,11.473731629123115 L 116.70159524702247,17.795995152744077 L 115.3247474515277,15.130607723487087 A 97.94481915658305 97.94481915658305 0 0 1 85.99330677320066,24.801546586425843"/><text text-anchor="middle" pointer-events="none" font-size="8px" fill="#000000" x="68.09369752808871" y="28.528468367899237" font-family="sans-serif">WROTE</text></g><g class="relationship" transform="translate(-225.00271229117837 -37.341992490447005) rotate(434.27806393608967)"><path class="outline" fill="#A5ABB6" stroke="none" d="M 25 0.5 L 44.81772353217656 0.5 L 44.81772353217656 -0.5 L 25 -0.5 Z M 91.70834853217656 0.5 L 111.52607206435312 0.5 L 111.52607206435312 3.5 L 118.52607206435312 0 L 111.52607206435312 -3.5 L 111.52607206435312 -0.5 L 91.70834853217656 -0.5 Z"/><text text-anchor="middle" pointer-events="none" font-size="8px" fill="#000000" x="68.26303603217656" y="3" font-family="sans-serif">DIRECTED</text></g><g class="relationship" transform="translate(-225.00271229117837 -37.341992490447005) rotate(434.27806393608967)"><path class="outline" fill="#A5ABB6" stroke="none" d="M 21.40063509461097,-12.933012701892217 L 21.90063509461097,-12.06698729810778 A 96.94481915658305 96.94481915658305 0 0 1 42.736141552008675,-21.03231901642866 L 42.4510628509359,-21.990823129197437 A 97.94481915658305 97.94481915658305 0 0 0 21.40063509461097,-12.933012701892217 Z M 93.87372561560451,-23.19398794867807 L 93.63378764701088,-22.223199727062692 A 96.94481915658305 96.94481915658305 0 0 1 114.86579818636277,-14.24214524706809 L 113.488950390868,-11.5767578178111 L 121.3145101538782,-11.473731629123115 L 116.70159524702247,-17.795995152744077 L 115.3247474515277,-15.130607723487087 A 97.94481915658305 97.94481915658305 0 0 0 93.87372561560451,-23.19398794867807"/><text text-anchor="middle" pointer-events="none" font-size="8px" fill="#000000" x="68.09369752808873" y="-22.528468367899237" font-family="sans-serif">PRODUCED</text></g></g><g class="layer nodes"><g class="node" aria-label="graph-node45" transform="translate(67.7002633391392,204.45888672232655)"><circle class="outline" cx="0" cy="0" r="25" fill="#C990C0" stroke="#b261a5" stroke-width="2px"/><text class="caption" text-anchor="middle" pointer-events="none" x="0" y="0" font-size="10px" fill="#FFFFFF" font-family="sans-serif"> Cameron</text><text class="caption" text-anchor="middle" pointer-events="none" x="0" y="10" font-size="10px" fill="#FFFFFF" font-family="sans-serif"> Crowe</text></g><g class="node" aria-label="graph-node37" transform="translate(187.38346503604134,124.89784198059236)"><circle class="outline" cx="0" cy="0" r="25" fill="#F79767" stroke="#f36924" stroke-width="2px"/><text class="caption" text-anchor="middle" pointer-events="none" x="0" y="0" font-size="10px" fill="#FFFFFF" font-family="sans-serif"> Jerry</text><text class="caption" text-anchor="middle" pointer-events="none" x="0" y="10" font-size="10px" fill="#FFFFFF" font-family="sans-serif"> Maguire</text></g><g class="node" aria-label="graph-node5" transform="translate(30.696401959741536,-2.593703703662541)"><circle class="outline" cx="0" cy="0" r="25" fill="#C990C0" stroke="#b261a5" stroke-width="2px"/><text class="caption" text-anchor="middle" pointer-events="none" x="0" y="0" font-size="10px" fill="#FFFFFF" font-family="sans-serif"> Lilly</text><text class="caption" text-anchor="middle" pointer-events="none" x="0" y="10" font-size="10px" fill="#FFFFFF" font-family="sans-serif"> Wach…</text></g><g class="node" aria-label="graph-node121" transform="translate(-66.27046406955901,-109.77340152305892)"><circle class="outline" cx="0" cy="0" r="25" fill="#F79767" stroke="#f36924" stroke-width="2px"/><text class="caption" text-anchor="middle" pointer-events="none" x="0" y="0" font-size="10px" fill="#FFFFFF" font-family="sans-serif"> Speed</text><text class="caption" text-anchor="middle" pointer-events="none" x="0" y="10" font-size="10px" fill="#FFFFFF" font-family="sans-serif"> Racer</text></g><g class="node" aria-label="graph-node6" transform="translate(109.90389784960112,-107.90760714839743)"><circle class="outline" cx="0" cy="0" r="25" fill="#C990C0" stroke="#b261a5" stroke-width="2px"/><text class="caption" text-anchor="middle" pointer-events="none" x="0" y="0" font-size="10px" fill="#FFFFFF" font-family="sans-serif"> Lana</text><text class="caption" text-anchor="middle" pointer-events="none" x="0" y="10" font-size="10px" fill="#FFFFFF" font-family="sans-serif"> Wach…</text></g><g class="node" aria-label="graph-node156" transform="translate(-225.00271229117837,-37.341992490447005)"><circle class="outline" cx="0" cy="0" r="25" fill="#C990C0" stroke="#b261a5" stroke-width="2px"/><text class="caption" text-anchor="middle" pointer-events="none" x="0" y="0" font-size="10px" fill="#FFFFFF" font-family="sans-serif"> Nancy</text><text class="caption" text-anchor="middle" pointer-events="none" x="0" y="10" font-size="10px" fill="#FFFFFF" font-family="sans-serif"> Meyers</text></g><g class="node" aria-label="graph-node154" transform="translate(-186.11159621838556,100.81449289056738)"><circle class="outline" cx="0" cy="0" r="25" fill="#F79767" stroke="#f36924" stroke-width="2px"/><text class="caption" text-anchor="middle" pointer-events="none" x="0" y="5" font-size="10px" fill="#FFFFFF" font-family="sans-serif"> Somethi…</text></g></g></svg>