<svg xmlns="http://www.w3.org/2000/svg" width="624.9638061523438" height="383.271728515625" viewBox="-275.32611083984375 -120.55194091796875 624.9638061523438 383.271728515625"><title>Neo4j Graph Visualization</title><desc>Created using Neo4j (http://www.neo4j.com/)</desc><g class="layer relationships"><g class="relationship" transform="translate(103.337383282907 233.7198052928652) rotate(194.3931553548573)"><path class="outline" fill="#A5ABB6" stroke="none" d="M 25 0.5 L 33.75764514731492 0.5 L 33.75764514731492 -0.5 L 25 -0.5 Z M 79.32014514731492 0.5 L 88.07779029462984 0.5 L 88.07779029462984 3.5 L 95.07779029462984 0 L 88.07779029462984 -3.5 L 88.07779029462984 -0.5 L 79.32014514731492 -0.5 Z"/><text text-anchor="middle" pointer-events="none" font-size="8px" fill="#000000" x="56.53889514731492" y="3" transform="rotate(180 56.53889514731492 0)" font-family="sans-serif">ACTED_IN</text></g><g class="relationship" transform="translate(179.5665206587379 122.66512143713159) rotate(374.8766478177675)"><path class="outline" fill="#A5ABB6" stroke="none" d="M 25 0.5 L 46.70062558928383 0.5 L 46.70062558928383 -0.5 L 25 -0.5 Z M 92.26312558928383 0.5 L 113.96375117856766 0.5 L 113.96375117856766 3.5 L 120.96375117856766 0 L 113.96375117856766 -3.5 L 113.96375117856766 -0.5 L 92.26312558928383 -0.5 Z"/><text text-anchor="middle" pointer-events="none" font-size="8px" fill="#000000" x="69.48187558928383" y="3" font-family="sans-serif">ACTED_IN</text></g><g class="relationship" transform="translate(179.5665206587379 122.66512143713159) rotate(313.96865402904734)"><path class="outline" fill="#A5ABB6" stroke="none" d="M 25 0.5 L 48.665021542802236 0.5 L 48.665021542802236 -0.5 L 25 -0.5 Z M 94.22752154280224 0.5 L 117.89254308560447 0.5 L 117.89254308560447 3.5 L 124.89254308560447 0 L 117.89254308560447 -3.5 L 117.89254308560447 -0.5 L 94.22752154280224 -0.5 Z"/><text text-anchor="middle" pointer-events="none" font-size="8px" fill="#000000" x="71.44627154280224" y="3" font-family="sans-serif">ACTED_IN</text></g><g class="relationship" transform="translate(179.5665206587379 122.66512143713159) rotate(231.98609649778655)"><path class="outline" fill="#A5ABB6" stroke="none" d="M 25 0.5 L 86.4116198007848 0.5 L 86.4116198007848 -0.5 L 25 -0.5 Z M 131.97411980078482 0.5 L 193.3857396015696 0.5 L 193.3857396015696 3.5 L 200.3857396015696 0 L 193.3857396015696 -3.5 L 193.3857396015696 -0.5 L 131.97411980078482 -0.5 Z"/><text text-anchor="middle" pointer-events="none" font-size="8px" fill="#000000" x="109.1928698007848" y="3" transform="rotate(180 109.1928698007848 0)" font-family="sans-serif">ACTED_IN</text></g><g class="relationship" transform="translate(179.5665206587379 122.66512143713159) rotate(256.0738500904648)"><path class="outline" fill="#A5ABB6" stroke="none" d="M 25 0.5 L 57.649982009650515 0.5 L 57.649982009650515 -0.5 L 25 -0.5 Z M 103.21248200965051 0.5 L 135.86246401930103 0.5 L 135.86246401930103 3.5 L 142.86246401930103 0 L 135.86246401930103 -3.5 L 135.86246401930103 -0.5 L 103.21248200965051 -0.5 Z"/><text text-anchor="middle" pointer-events="none" font-size="8px" fill="#000000" x="80.43123200965051" y="3" transform="rotate(180 80.43123200965051 0)" font-family="sans-serif">ACTED_IN</text></g><g class="relationship" transform="translate(179.5665206587379 122.66512143713159) rotate(517.1315226421628)"><path class="outline" fill="#A5ABB6" stroke="none" d="M 25 0.5 L 78.20006378412836 0.5 L 78.20006378412836 -0.5 L 25 -0.5 Z M 123.76256378412836 0.5 L 176.96262756825672 0.5 L 176.96262756825672 3.5 L 183.96262756825672 0 L 176.96262756825672 -3.5 L 176.96262756825672 -0.5 L 123.76256378412836 -0.5 Z"/><text text-anchor="middle" pointer-events="none" font-size="8px" fill="#000000" x="100.98131378412836" y="3" transform="rotate(180 100.98131378412836 0)" font-family="sans-serif">ACTED_IN</text></g><g class="relationship" transform="translate(-0.38481456048280904 70.01332423739095) rotate(288.2310453842185)"><path class="outline" fill="#A5ABB6" stroke="none" d="M 25 0.5 L 39.4802577647654 0.5 L 39.4802577647654 -0.5 L 25 -0.5 Z M 85.0427577647654 0.5 L 99.5230155295308 0.5 L 99.5230155295308 3.5 L 106.5230155295308 0 L 99.5230155295308 -3.5 L 99.5230155295308 -0.5 L 85.0427577647654 -0.5 Z"/><text text-anchor="middle" pointer-events="none" font-size="8px" fill="#000000" x="62.2615077647654" y="3" font-family="sans-serif">ACTED_IN</text></g><g class="relationship" transform="translate(-0.38481456048280904 70.01332423739095) rotate(321.6834791865871)"><path class="outline" fill="#A5ABB6" stroke="none" d="M 25 0.5 L 62.650766750522536 0.5 L 62.650766750522536 -0.5 L 25 -0.5 Z M 108.21326675052254 0.5 L 145.86403350104507 0.5 L 145.86403350104507 3.5 L 152.86403350104507 0 L 145.86403350104507 -3.5 L 145.86403350104507 -0.5 L 108.21326675052254 -0.5 Z"/><text text-anchor="middle" pointer-events="none" font-size="8px" fill="#000000" x="85.43201675052254" y="3" font-family="sans-serif">ACTED_IN</text></g><g class="relationship" transform="translate(-0.38481456048280904 70.01332423739095) rotate(455.3717292881636)"><path class="outline" fill="#A5ABB6" stroke="none" d="M 25 0.5 L 40.94310224748854 0.5 L 40.94310224748854 -0.5 L 25 -0.5 Z M 86.50560224748854 0.5 L 102.44870449497708 0.5 L 102.44870449497708 3.5 L 109.44870449497708 0 L 102.44870449497708 -3.5 L 102.44870449497708 -0.5 L 86.50560224748854 -0.5 Z"/><text text-anchor="middle" pointer-events="none" font-size="8px" fill="#000000" x="63.72435224748854" y="3" transform="rotate(180 63.72435224748854 0)" font-family="sans-serif">ACTED_IN</text></g><g class="relationship" transform="translate(88.12376998360745 75.24876125487378) rotate(250.0044222551477)"><path class="outline" fill="#A5ABB6" stroke="none" d="M 25 0.5 L 42.9715515243535 0.5 L 42.9715515243535 -0.5 L 25 -0.5 Z M 88.5340515243535 0.5 L 106.505603048707 0.5 L 106.505603048707 3.5 L 113.505603048707 0 L 106.505603048707 -3.5 L 106.505603048707 -0.5 L 88.5340515243535 -0.5 Z"/><text text-anchor="middle" pointer-events="none" font-size="8px" fill="#000000" x="65.7528015243535" y="3" transform="rotate(180 65.7528015243535 0)" font-family="sans-serif">ACTED_IN</text></g><g class="relationship" transform="translate(88.12376998360745 75.24876125487378) rotate(293.8399409978531)"><path class="outline" fill="#A5ABB6" stroke="none" d="M 25 0.5 L 36.86231633280491 0.5 L 36.86231633280491 -0.5 L 25 -0.5 Z M 82.42481633280491 0.5 L 94.28713266560982 0.5 L 94.28713266560982 3.5 L 101.28713266560982 0 L 94.28713266560982 -3.5 L 94.28713266560982 -0.5 L 82.42481633280491 -0.5 Z"/><text text-anchor="middle" pointer-events="none" font-size="8px" fill="#000000" x="59.64356633280491" y="3" font-family="sans-serif">ACTED_IN</text></g><g class="relationship" transform="translate(88.12376998360745 75.24876125487378) rotate(488.1667282114852)"><path class="outline" fill="#A5ABB6" stroke="none" d="M 25 0.5 L 55.51740782659367 0.5 L 55.51740782659367 -0.5 L 25 -0.5 Z M 101.07990782659367 0.5 L 131.59731565318734 0.5 L 131.59731565318734 3.5 L 138.59731565318734 0 L 131.59731565318734 -3.5 L 131.59731565318734 -0.5 L 101.07990782659367 -0.5 Z"/><text text-anchor="middle" pointer-events="none" font-size="8px" fill="#000000" x="78.29865782659367" y="3" transform="rotate(180 78.29865782659367 0)" font-family="sans-serif">ACTED_IN</text></g><g class="relationship" transform="translate(-94.46770627897898 60.20315151856999) rotate(261.2970068531631)"><path class="outline" fill="#A5ABB6" stroke="none" d="M 25 0.5 L 50.48012923776491 0.5 L 50.48012923776491 -0.5 L 25 -0.5 Z M 96.04262923776491 0.5 L 121.52275847552983 0.5 L 121.52275847552983 3.5 L 128.52275847552983 0 L 121.52275847552983 -3.5 L 121.52275847552983 -0.5 L 96.04262923776491 -0.5 Z"/><text text-anchor="middle" pointer-events="none" font-size="8px" fill="#000000" x="73.26137923776491" y="3" transform="rotate(180 73.26137923776491 0)" font-family="sans-serif">ACTED_IN</text></g><g class="relationship" transform="translate(-94.46770627897898 60.20315151856999) rotate(223.49746845673593)"><path class="outline" fill="#A5ABB6" stroke="none" d="M 25 0.5 L 50.82735477993535 0.5 L 50.82735477993535 -0.5 L 25 -0.5 Z M 96.38985477993535 0.5 L 122.2172095598707 0.5 L 122.2172095598707 3.5 L 129.2172095598707 0 L 122.2172095598707 -3.5 L 122.2172095598707 -0.5 L 96.38985477993535 -0.5 Z"/><text text-anchor="middle" pointer-events="none" font-size="8px" fill="#000000" x="73.60860477993535" y="3" transform="rotate(180 73.60860477993535 0)" font-family="sans-serif">ACTED_IN</text></g><g class="relationship" transform="translate(-94.46770627897898 60.20315151856999) rotate(499.43066900163933)"><path class="outline" fill="#A5ABB6" stroke="none" d="M 25 0.5 L 48.94928559975949 0.5 L 48.94928559975949 -0.5 L 25 -0.5 Z M 94.51178559975949 0.5 L 118.46107119951898 0.5 L 118.46107119951898 3.5 L 125.46107119951898 0 L 118.46107119951898 -3.5 L 118.46107119951898 -0.5 L 94.51178559975949 -0.5 Z"/><text text-anchor="middle" pointer-events="none" font-size="8px" fill="#000000" x="71.73053559975949" y="3" transform="rotate(180 71.73053559975949 0)" font-family="sans-serif">ACTED_IN</text></g><g class="relationship" transform="translate(-94.46770627897898 60.20315151856999) rotate(185.56558534604642)"><path class="outline" fill="#A5ABB6" stroke="none" d="M 25 0.5 L 50.00759076903978 0.5 L 50.00759076903978 -0.5 L 25 -0.5 Z M 95.57009076903978 0.5 L 120.57768153807956 0.5 L 120.57768153807956 3.5 L 127.57768153807956 0 L 120.57768153807956 -3.5 L 120.57768153807956 -0.5 L 95.57009076903978 -0.5 Z"/><text text-anchor="middle" pointer-events="none" font-size="8px" fill="#000000" x="72.78884076903978" y="3" transform="rotate(180 72.78884076903978 0)" font-family="sans-serif">ACTED_IN</text></g><g class="relationship" transform="translate(-94.46770627897898 60.20315151856999) rotate(319.59480472204643)"><path class="outline" fill="#A5ABB6" stroke="none" d="M 25 0.5 L 62.512873355024794 0.5 L 62.512873355024794 -0.5 L 25 -0.5 Z M 108.0753733550248 0.5 L 145.5882467100496 0.5 L 145.5882467100496 3.5 L 152.5882467100496 0 L 145.5882467100496 -3.5 L 145.5882467100496 -0.5 L 108.0753733550248 -0.5 Z"/><text text-anchor="middle" pointer-events="none" font-size="8px" fill="#000000" x="85.2941233550248" y="3" font-family="sans-serif">ACTED_IN</text></g><g class="relationship" transform="translate(-94.46770627897898 60.20315151856999) rotate(336.7315511379759)"><path class="outline" fill="#A5ABB6" stroke="none" d="M 25 0.5 L 100.87872147796305 0.5 L 100.87872147796305 -0.5 L 25 -0.5 Z M 146.44122147796304 0.5 L 222.3199429559261 0.5 L 222.3199429559261 3.5 L 229.3199429559261 0 L 222.3199429559261 -3.5 L 222.3199429559261 -0.5 L 146.44122147796304 -0.5 Z"/><text text-anchor="middle" pointer-events="none" font-size="8px" fill="#000000" x="123.65997147796305" y="3" font-family="sans-serif">ACTED_IN</text></g><g class="relationship" transform="translate(-94.46770627897898 60.20315151856999) rotate(420.4358382461365)"><path class="outline" fill="#A5ABB6" stroke="none" d="M 25 0.5 L 56.30543763708724 0.5 L 56.30543763708724 -0.5 L 25 -0.5 Z M 101.86793763708724 0.5 L 133.17337527417448 0.5 L 133.17337527417448 3.5 L 140.17337527417448 0 L 133.17337527417448 -3.5 L 133.17337527417448 -0.5 L 101.86793763708724 -0.5 Z"/><text text-anchor="middle" pointer-events="none" font-size="8px" fill="#000000" x="79.08668763708724" y="3" font-family="sans-serif">ACTED_IN</text></g></g><g class="layer nodes"><g class="node" aria-label="graph-node8" transform="translate(103.337383282907,233.7198052928652)"><circle class="outline" cx="0" cy="0" r="25" fill="#C990C0" stroke="#b261a5" stroke-width="2px"/><text class="caption" text-anchor="middle" pointer-events="none" x="0" y="0" font-size="10px" fill="#FFFFFF" font-family="sans-serif"> Emil</text><text class="caption" text-anchor="middle" pointer-events="none" x="0" y="10" font-size="10px" fill="#FFFFFF" font-family="sans-serif"> Eifrem</text></g><g class="node" aria-label="graph-node0" transform="translate(-12.971508969996433,203.8715674061222)"><circle class="outline" cx="0" cy="0" r="25" fill="#F79767" stroke="#f36924" stroke-width="2px"/><text class="caption" text-anchor="middle" pointer-events="none" x="0" y="0" font-size="10px" fill="#FFFFFF" font-family="sans-serif"> The</text><text class="caption" text-anchor="middle" pointer-events="none" x="0" y="10" font-size="10px" fill="#FFFFFF" font-family="sans-serif"> Matrix</text></g><g class="node" aria-label="graph-node4" transform="translate(179.5665206587379,122.66512143713159)"><circle class="outline" cx="0" cy="0" r="25" fill="#C990C0" stroke="#b261a5" stroke-width="2px"/><text class="caption" text-anchor="middle" pointer-events="none" x="0" y="0" font-size="10px" fill="#FFFFFF" font-family="sans-serif"> Hugo</text><text class="caption" text-anchor="middle" pointer-events="none" x="0" y="10" font-size="10px" fill="#FFFFFF" font-family="sans-serif"> Weavi…</text></g><g class="node" aria-label="graph-node105" transform="translate(320.63768356669516,160.13969486919873)"><circle class="outline" cx="0" cy="0" r="25" fill="#F79767" stroke="#f36924" stroke-width="2px"/><text class="caption" text-anchor="middle" pointer-events="none" x="0" y="0" font-size="10px" fill="#FFFFFF" font-family="sans-serif"> Cloud</text><text class="caption" text-anchor="middle" pointer-events="none" x="0" y="10" font-size="10px" fill="#FFFFFF" font-family="sans-serif"> Atlas</text></g><g class="node" aria-label="graph-node116" transform="translate(283.63162550700633,14.784500259884537)"><circle class="outline" cx="0" cy="0" r="25" fill="#F79767" stroke="#f36924" stroke-width="2px"/><text class="caption" text-anchor="middle" pointer-events="none" x="0" y="0" font-size="10px" fill="#FFFFFF" font-family="sans-serif"> V for</text><text class="caption" text-anchor="middle" pointer-events="none" x="0" y="10" font-size="10px" fill="#FFFFFF" font-family="sans-serif"> Vende…</text></g><g class="node" aria-label="graph-node10" transform="translate(40.76210948252167,-54.907587766085946)"><circle class="outline" cx="0" cy="0" r="25" fill="#F79767" stroke="#f36924" stroke-width="2px"/><text class="caption" text-anchor="middle" pointer-events="none" x="0" y="-5" font-size="10px" fill="#FFFFFF" font-family="sans-serif"> The</text><text class="caption" text-anchor="middle" pointer-events="none" x="0" y="5" font-size="10px" fill="#FFFFFF" font-family="sans-serif"> Matrix</text><text class="caption" text-anchor="middle" pointer-events="none" x="0" y="15" font-size="10px" fill="#FFFFFF" font-family="sans-serif"> Rev…</text></g><g class="node" aria-label="graph-node9" transform="translate(139.16688444813954,-40.263317519001674)"><circle class="outline" cx="0" cy="0" r="25" fill="#F79767" stroke="#f36924" stroke-width="2px"/><text class="caption" text-anchor="middle" pointer-events="none" x="0" y="-5" font-size="10px" fill="#FFFFFF" font-family="sans-serif"> The</text><text class="caption" text-anchor="middle" pointer-events="none" x="0" y="5" font-size="10px" fill="#FFFFFF" font-family="sans-serif"> Matrix</text><text class="caption" text-anchor="middle" pointer-events="none" x="0" y="15" font-size="10px" fill="#FFFFFF" font-family="sans-serif"> Rel…</text></g><g class="node" aria-label="graph-node3" transform="translate(-0.38481456048280904,70.01332423739095)"><circle class="outline" cx="0" cy="0" r="25" fill="#C990C0" stroke="#b261a5" stroke-width="2px"/><text class="caption" text-anchor="middle" pointer-events="none" x="0" y="0" font-size="10px" fill="#FFFFFF" font-family="sans-serif"> Laurence</text><text class="caption" text-anchor="middle" pointer-events="none" x="0" y="10" font-size="10px" fill="#FFFFFF" font-family="sans-serif"> Fishb…</text></g><g class="node" aria-label="graph-node2" transform="translate(88.12376998360745,75.24876125487378)"><circle class="outline" cx="0" cy="0" r="25" fill="#C990C0" stroke="#b261a5" stroke-width="2px"/><text class="caption" text-anchor="middle" pointer-events="none" x="0" y="5" font-size="10px" fill="#FFFFFF" font-family="sans-serif"> Carrie-A…</text></g><g class="node" aria-label="graph-node1" transform="translate(-94.46770627897898,60.20315151856999)"><circle class="outline" cx="0" cy="0" r="25" fill="#C990C0" stroke="#b261a5" stroke-width="2px"/><text class="caption" text-anchor="middle" pointer-events="none" x="0" y="0" font-size="10px" fill="#FFFFFF" font-family="sans-serif"> Keanu</text><text class="caption" text-anchor="middle" pointer-events="none" x="0" y="10" font-size="10px" fill="#FFFFFF" font-family="sans-serif"> Reeves</text></g><g class="node" aria-label="graph-node154" transform="translate(-117.69761241101963,-91.55194339106542)"><circle class="outline" cx="0" cy="0" r="25" fill="#F79767" stroke="#f36924" stroke-width="2px"/><text class="caption" text-anchor="middle" pointer-events="none" x="0" y="5" font-size="10px" fill="#FFFFFF" font-family="sans-serif"> Somethi…</text></g><g class="node" aria-label="graph-node87" transform="translate(-206.33760793070024,-45.94802760284763)"><circle class="outline" cx="0" cy="0" r="25" fill="#F79767" stroke="#f36924" stroke-width="2px"/><text class="caption" text-anchor="middle" pointer-events="none" x="0" y="0" font-size="10px" fill="#FFFFFF" font-family="sans-serif"> The</text><text class="caption" text-anchor="middle" pointer-events="none" x="0" y="10" font-size="10px" fill="#FFFFFF" font-family="sans-serif"> Repla…</text></g><g class="node" aria-label="graph-node100" transform="translate(-208.76087623499046,158.05817309596782)"><circle class="outline" cx="0" cy="0" r="25" fill="#F79767" stroke="#f36924" stroke-width="2px"/><text class="caption" text-anchor="middle" pointer-events="none" x="0" y="0" font-size="10px" fill="#FFFFFF" font-family="sans-serif"> Johnny</text><text class="caption" text-anchor="middle" pointer-events="none" x="0" y="10" font-size="10px" fill="#FFFFFF" font-family="sans-serif"> Mnem…</text></g><g class="node" aria-label="graph-node11" transform="translate(-246.32611122560746,45.405389843187)"><circle class="outline" cx="0" cy="0" r="25" fill="#F79767" stroke="#f36924" stroke-width="2px"/><text class="caption" text-anchor="middle" pointer-events="none" x="0" y="-5" font-size="10px" fill="#FFFFFF" font-family="sans-serif"> The</text><text class="caption" text-anchor="middle" pointer-events="none" x="0" y="5" font-size="10px" fill="#FFFFFF" font-family="sans-serif"> Devil's</text><text class="caption" text-anchor="middle" pointer-events="none" x="0" y="15" font-size="10px" fill="#FFFFFF" font-family="sans-serif"> Adv…</text></g></g></svg>