<svg xmlns="http://www.w3.org/2000/svg" width="371.78607177734375" height="209.005859375" viewBox="-279.41229248046875 -176.23902893066406 371.78607177734375 209.005859375"><title>Neo4j Graph Visualization</title><desc>Created using Neo4j (http://www.neo4j.com/)</desc><g class="layer relationships"><g class="relationship" transform="translate(63.37379042309294 -64.59245636965329) rotate(208.11088213958112)"><path class="outline" fill="#A5ABB6" stroke="none" d="M 25 0.5 L 61.420562524822216 0.5 L 61.420562524822216 -0.5 L 25 -0.5 Z M 106.98306252482222 0.5 L 143.40362504964443 0.5 L 143.40362504964443 3.5 L 150.40362504964443 0 L 143.40362504964443 -3.5 L 143.40362504964443 -0.5 L 106.98306252482222 -0.5 Z"/><text text-anchor="middle" pointer-events="none" font-size="8px" fill="#000000" x="84.20181252482222" y="3" transform="rotate(180 84.20181252482222 0)" font-family="sans-serif">ACTED_IN</text></g><g class="relationship" transform="translate(63.37379042309294 -64.59245636965329) rotate(516.1932222377777)"><path class="outline" fill="#A5ABB6" stroke="none" d="M 25 0.5 L 58.39445308116471 0.5 L 58.39445308116471 -0.5 L 25 -0.5 Z M 103.95695308116471 0.5 L 137.35140616232943 0.5 L 137.35140616232943 3.5 L 144.35140616232943 0 L 137.35140616232943 -3.5 L 137.35140616232943 -0.5 L 103.95695308116471 -0.5 Z"/><text text-anchor="middle" pointer-events="none" font-size="8px" fill="#000000" x="81.17570308116471" y="3" transform="rotate(180 81.17570308116471 0)" font-family="sans-serif">ACTED_IN</text></g><g class="relationship" transform="translate(63.37379042309294 -64.59245636965329) rotate(182.03284973712272)"><path class="outline" fill="#A5ABB6" stroke="none" d="M 25 0.5 L 52.1583867383023 0.5 L 52.1583867383023 -0.5 L 25 -0.5 Z M 97.7208867383023 0.5 L 124.8792734766046 0.5 L 124.8792734766046 3.5 L 131.8792734766046 0 L 124.8792734766046 -3.5 L 124.8792734766046 -0.5 L 97.7208867383023 -0.5 Z"/><text text-anchor="middle" pointer-events="none" font-size="8px" fill="#000000" x="74.9396367383023" y="3" transform="rotate(180 74.9396367383023 0)" font-family="sans-serif">ACTED_IN</text></g><g class="relationship" transform="translate(-250.4122952956028 -66.22260346171234) rotate(333.0101753878823)"><path class="outline" fill="#A5ABB6" stroke="none" d="M 25 0.5 L 62.97687270183218 0.5 L 62.97687270183218 -0.5 L 25 -0.5 Z M 108.53937270183218 0.5 L 146.51624540366436 0.5 L 146.51624540366436 3.5 L 153.51624540366436 0 L 146.51624540366436 -3.5 L 146.51624540366436 -0.5 L 108.53937270183218 -0.5 Z"/><text text-anchor="middle" pointer-events="none" font-size="8px" fill="#000000" x="85.75812270183218" y="3" font-family="sans-serif">ACTED_IN</text></g><g class="relationship" transform="translate(-250.4122952956028 -66.22260346171234) rotate(383.77906545672823)"><path class="outline" fill="#A5ABB6" stroke="none" d="M 25 0.5 L 60.508849761818965 0.5 L 60.508849761818965 -0.5 L 25 -0.5 Z M 106.07134976181896 0.5 L 141.58019952363793 0.5 L 141.58019952363793 3.5 L 148.58019952363793 0 L 141.58019952363793 -3.5 L 141.58019952363793 -0.5 L 106.07134976181896 -0.5 Z"/><text text-anchor="middle" pointer-events="none" font-size="8px" fill="#000000" x="83.29009976181896" y="3" font-family="sans-serif">ACTED_IN</text></g><g class="relationship" transform="translate(-250.4122952956028 -66.22260346171234) rotate(358.56439873846216)"><path class="outline" fill="#A5ABB6" stroke="none" d="M 25 0.5 L 52.24617035158923 0.5 L 52.24617035158923 -0.5 L 25 -0.5 Z M 97.80867035158923 0.5 L 125.05484070317846 0.5 L 125.05484070317846 3.5 L 132.05484070317846 0 L 125.05484070317846 -3.5 L 125.05484070317846 -0.5 L 97.80867035158923 -0.5 Z"/><text text-anchor="middle" pointer-events="none" font-size="8px" fill="#000000" x="75.02742035158923" y="3" font-family="sans-serif">ACTED_IN</text></g></g><g class="layer nodes"><g class="node" aria-label="graph-node10" transform="translate(-91.33876542521176,-147.23903369407398)"><circle class="outline" cx="0" cy="0" r="25" fill="#F79767" stroke="#f36924" stroke-width="2px"/><text class="caption" text-anchor="middle" pointer-events="none" x="0" y="-5" font-size="10px" fill="#FFFFFF" font-family="sans-serif"> The</text><text class="caption" text-anchor="middle" pointer-events="none" x="0" y="5" font-size="10px" fill="#FFFFFF" font-family="sans-serif"> Matrix</text><text class="caption" text-anchor="middle" pointer-events="none" x="0" y="15" font-size="10px" fill="#FFFFFF" font-family="sans-serif"> Rev…</text></g><g class="node" aria-label="graph-node4" transform="translate(63.37379042309294,-64.59245636965329)"><circle class="outline" cx="0" cy="0" r="25" fill="#C990C0" stroke="#b261a5" stroke-width="2px"/><text class="caption" text-anchor="middle" pointer-events="none" x="0" y="0" font-size="10px" fill="#FFFFFF" font-family="sans-serif"> Hugo</text><text class="caption" text-anchor="middle" pointer-events="none" x="0" y="10" font-size="10px" fill="#FFFFFF" font-family="sans-serif"> Weavi…</text></g><g class="node" aria-label="graph-node1" transform="translate(-250.4122952956028,-66.22260346171234)"><circle class="outline" cx="0" cy="0" r="25" fill="#C990C0" stroke="#b261a5" stroke-width="2px"/><text class="caption" text-anchor="middle" pointer-events="none" x="0" y="0" font-size="10px" fill="#FFFFFF" font-family="sans-serif"> Keanu</text><text class="caption" text-anchor="middle" pointer-events="none" x="0" y="10" font-size="10px" fill="#FFFFFF" font-family="sans-serif"> Reeves</text></g><g class="node" aria-label="graph-node9" transform="translate(-91.56783048081539,3.7668362014948116)"><circle class="outline" cx="0" cy="0" r="25" fill="#F79767" stroke="#f36924" stroke-width="2px"/><text class="caption" text-anchor="middle" pointer-events="none" x="0" y="-5" font-size="10px" fill="#FFFFFF" font-family="sans-serif"> The</text><text class="caption" text-anchor="middle" pointer-events="none" x="0" y="5" font-size="10px" fill="#FFFFFF" font-family="sans-serif"> Matrix</text><text class="caption" text-anchor="middle" pointer-events="none" x="0" y="15" font-size="10px" fill="#FFFFFF" font-family="sans-serif"> Rel…</text></g><g class="node" aria-label="graph-node0" transform="translate(-93.40675165110183,-70.15735290678094)"><circle class="outline" cx="0" cy="0" r="25" fill="#F79767" stroke="#f36924" stroke-width="2px"/><text class="caption" text-anchor="middle" pointer-events="none" x="0" y="0" font-size="10px" fill="#FFFFFF" font-family="sans-serif"> The</text><text class="caption" text-anchor="middle" pointer-events="none" x="0" y="10" font-size="10px" fill="#FFFFFF" font-family="sans-serif"> Matrix</text></g></g></svg>