<svg xmlns="http://www.w3.org/2000/svg" width="531.27001953125" height="312.51593017578125" viewBox="-152.42129516601562 -313.2461853027344 531.27001953125 312.51593017578125"><title>Neo4j Graph Visualization</title><desc>Created using Neo4j (http://www.neo4j.com/)</desc><g class="layer relationships"><g class="relationship" transform="translate(-123.42128783958637 -29.73026464512273) rotate(282.4123039422804)"><path class="outline" fill="#A5ABB6" stroke="none" d="M 25 0.5 L 25.17321925397202 0.5 L 25.17321925397202 -0.5 L 25 -0.5 Z M 52.95056300397202 0.5 L 53.12378225794404 0.5 L 53.12378225794404 3.5 L 60.12378225794404 0 L 53.12378225794404 -3.5 L 53.12378225794404 -0.5 L 52.95056300397202 -0.5 Z"/><text text-anchor="middle" pointer-events="none" font-size="8px" fill="#000000" x="39.06189112897202" y="3" font-family="sans-serif">DIR…</text></g><g class="relationship" transform="translate(75.99575677448212 -284.2461912755317) rotate(496.5824628483674)"><path class="outline" fill="#A5ABB6" stroke="none" d="M 25 0.5 L 98.39454992806236 0.5 L 98.39454992806236 -0.5 L 25 -0.5 Z M 143.95704992806236 0.5 L 217.35159985612472 0.5 L 217.35159985612472 3.5 L 224.35159985612472 0 L 217.35159985612472 -3.5 L 217.35159985612472 -0.5 L 143.95704992806236 -0.5 Z"/><text text-anchor="middle" pointer-events="none" font-size="8px" fill="#000000" x="121.17579992806236" y="3" transform="rotate(180 121.17579992806236 0)" font-family="sans-serif">ACTED_IN</text></g><g class="relationship" transform="translate(75.99575677448212 -284.2461912755317) rotate(380.58746936062823)"><path class="outline" fill="#A5ABB6" stroke="none" d="M 25 0.5 L 98.2510957977642 0.5 L 98.2510957977642 -0.5 L 25 -0.5 Z M 143.8135957977642 0.5 L 217.0646915955284 0.5 L 217.0646915955284 3.5 L 224.0646915955284 0 L 217.0646915955284 -3.5 L 217.0646915955284 -0.5 L 143.8135957977642 -0.5 Z"/><text text-anchor="middle" pointer-events="none" font-size="8px" fill="#000000" x="121.0323457977642" y="3" font-family="sans-serif">ACTED_IN</text></g><g class="relationship" transform="translate(75.99575677448212 -284.2461912755317) rotate(443.93014162681925)"><path class="outline" fill="#A5ABB6" stroke="none" d="M 25 0.5 L 31.72926127528899 0.5 L 31.72926127528899 -0.5 L 25 -0.5 Z M 77.29176127528899 0.5 L 84.02102255057798 0.5 L 84.02102255057798 3.5 L 91.02102255057798 0 L 84.02102255057798 -3.5 L 84.02102255057798 -0.5 L 77.29176127528899 -0.5 Z"/><text text-anchor="middle" pointer-events="none" font-size="8px" fill="#000000" x="54.51051127528899" y="3" font-family="sans-serif">ACTED_IN</text></g><g class="relationship" transform="translate(75.99575677448212 -284.2461912755317) rotate(405.9869084067835)"><path class="outline" fill="#A5ABB6" stroke="none" d="M 25 0.5 L 53.85911967154114 0.5 L 53.85911967154114 -0.5 L 25 -0.5 Z M 99.42161967154114 0.5 L 128.28073934308227 0.5 L 128.28073934308227 3.5 L 135.28073934308227 0 L 128.28073934308227 -3.5 L 128.28073934308227 -0.5 L 99.42161967154114 -0.5 Z"/><text text-anchor="middle" pointer-events="none" font-size="8px" fill="#000000" x="76.64036967154114" y="3" font-family="sans-serif">ACTED_IN</text></g><g class="relationship" transform="translate(75.99575677448212 -284.2461912755317) rotate(479.86513588756065)"><path class="outline" fill="#A5ABB6" stroke="none" d="M 25 0.5 L 56.769225038314815 0.5 L 56.769225038314815 -0.5 L 25 -0.5 Z M 102.33172503831481 0.5 L 134.10095007662963 0.5 L 134.10095007662963 3.5 L 141.10095007662963 0 L 134.10095007662963 -3.5 L 134.10095007662963 -0.5 L 102.33172503831481 -0.5 Z"/><text text-anchor="middle" pointer-events="none" font-size="8px" fill="#000000" x="79.55047503831481" y="3" transform="rotate(180 79.55047503831481 0)" font-family="sans-serif">ACTED_IN</text></g><g class="relationship" transform="translate(156.34572073004009 -55.876461679825475) rotate(317.34424103134484)"><path class="outline" fill="#A5ABB6" stroke="none" d="M 24.018736134675446,6.953439040707552 L 24.277555179777966,5.987513214418485 A 303.88717884538926 303.88717884538926 0 0 0 74.55645404478685,15.014779348493846 L 74.46308751747742,16.010411153720156 A 304.88717884538926 304.88717884538926 0 0 1 24.018736134675446,6.953439040707552 Z M 126.26503005336554,16.447863821310023 L 126.18849129724501,15.450797214301474 A 303.88717884538926 303.88717884538926 0 0 0 176.61267408990562,7.273939955822806 L 175.8852660129105,4.363462763072059 L 183.52502221915657,6.061733974959328 L 177.58255152589913,11.154576212823802 L 176.85514344890402,8.244099020073055 A 304.88717884538926 304.88717884538926 0 0 1 126.26503005336554,16.447863821310023"/><text text-anchor="middle" pointer-events="none" font-size="8px" fill="#000000" x="100.35897314624683" y="19.831364900448364" font-family="sans-serif">PRODUCED</text></g><g class="relationship" transform="translate(156.34572073004009 -55.876461679825475) rotate(317.34424103134484)"><path class="outline" fill="#A5ABB6" stroke="none" d="M 24.018736134675446,-6.953439040707552 L 24.277555179777966,-5.987513214418485 A 303.88717884538926 303.88717884538926 0 0 1 82.52119917362319,-15.656168613260775 L 82.45404219276155,-16.653911034891507 A 304.88717884538926 304.88717884538926 0 0 0 24.018736134675446,-6.953439040707552 Z M 118.26434744637494,-16.956318875090744 L 118.2140501433627,-15.95758458544725 A 303.88717884538926 303.88717884538926 0 0 1 176.61267408990562,-7.273939955822806 L 175.8852660129105,-4.363462763072059 L 183.52502221915657,-6.061733974959328 L 177.58255152589913,-11.154576212823802 L 176.85514344890402,-8.244099020073055 A 304.88717884538926 304.88717884538926 0 0 0 118.26434744637494,-16.956318875090744"/><text text-anchor="middle" pointer-events="none" font-size="8px" fill="#000000" x="100.3589731462467" y="-13.831364900448364" font-family="sans-serif">WROTE</text></g><g class="relationship" transform="translate(156.34572073004009 -55.876461679825475) rotate(192.29544361504168)"><path class="outline" fill="#A5ABB6" stroke="none" d="M 25 0.5 L 106.85885511023591 0.5 L 106.85885511023591 -0.5 L 25 -0.5 Z M 153.7494801102359 0.5 L 235.60833522047182 0.5 L 235.60833522047182 3.5 L 242.60833522047182 0 L 235.60833522047182 -3.5 L 235.60833522047182 -0.5 L 153.7494801102359 -0.5 Z"/><text text-anchor="middle" pointer-events="none" font-size="8px" fill="#000000" x="130.3041676102359" y="3" transform="rotate(180 130.3041676102359 0)" font-family="sans-serif">DIRECTED</text></g><g class="relationship" transform="translate(156.34572073004009 -55.876461679825475) rotate(238.9311114870947)"><path class="outline" fill="#A5ABB6" stroke="none" d="M 25 0.5 L 39.01668217031745 0.5 L 39.01668217031745 -0.5 L 25 -0.5 Z M 85.90730717031745 0.5 L 99.9239893406349 0.5 L 99.9239893406349 3.5 L 106.9239893406349 0 L 99.9239893406349 -3.5 L 99.9239893406349 -0.5 L 85.90730717031745 -0.5 Z"/><text text-anchor="middle" pointer-events="none" font-size="8px" fill="#000000" x="62.46199467031745" y="3" transform="rotate(180 62.46199467031745 0)" font-family="sans-serif">DIRECTED</text></g><g class="relationship" transform="translate(156.34572073004009 -55.876461679825475) rotate(285.33599750241564)"><path class="outline" fill="#A5ABB6" stroke="none" d="M 25 0.5 L 31.692110442465363 0.5 L 31.692110442465363 -0.5 L 25 -0.5 Z M 78.58273544246536 0.5 L 85.27484588493073 0.5 L 85.27484588493073 3.5 L 92.27484588493073 0 L 85.27484588493073 -3.5 L 85.27484588493073 -0.5 L 78.58273544246536 -0.5 Z"/><text text-anchor="middle" pointer-events="none" font-size="8px" fill="#000000" x="55.13742294246536" y="3" font-family="sans-serif">DIRECTED</text></g><g class="relationship" transform="translate(156.34572073004009 -55.876461679825475) rotate(207.34565756324275)"><path class="outline" fill="#A5ABB6" stroke="none" d="M 25 0.5 L 64.84266868182912 0.5 L 64.84266868182912 -0.5 L 25 -0.5 Z M 111.73329368182912 0.5 L 151.57596236365825 0.5 L 151.57596236365825 3.5 L 158.57596236365825 0 L 151.57596236365825 -3.5 L 151.57596236365825 -0.5 L 111.73329368182912 -0.5 Z"/><text text-anchor="middle" pointer-events="none" font-size="8px" fill="#000000" x="88.28798118182912" y="3" transform="rotate(180 88.28798118182912 0)" font-family="sans-serif">DIRECTED</text></g><g class="relationship" transform="translate(60.31251883465984 -32.927997624163794) rotate(326.6550896025432)"><path class="outline" fill="#A5ABB6" stroke="none" d="M 24.018736134675446,6.953439040707552 L 24.277555179777966,5.987513214418485 A 479.0704641238101 479.0704641238101 0 0 0 119.57462138006592,21.451265923570304 L 119.51472310620022,22.449470410029846 A 480.0704641238101 480.0704641238101 0 0 1 24.018736134675446,6.953439040707552 Z M 171.32386779922933,22.757584874590577 L 171.2758461976501,21.758738577214558 A 479.0704641238101 479.0704641238101 0 0 0 266.7500943319022,7.429523056777523 L 266.0081576777141,4.522715529407979 L 273.65630133812914,6.182805451567004 L 267.73934320415293,11.305266426603582 L 266.99740654996486,8.398458899234038 A 480.0704641238101 480.0704641238101 0 0 1 171.32386779922933,22.757584874590577"/><text text-anchor="middle" pointer-events="none" font-size="8px" fill="#000000" x="145.4181093900582" y="25.802962913474005" font-family="sans-serif">PRODUCED</text></g><g class="relationship" transform="translate(60.31251883465984 -32.927997624163794) rotate(326.6550896025432)"><path class="outline" fill="#A5ABB6" stroke="none" d="M 24.018736134675446,-6.953439040707552 L 24.277555179777966,-5.987513214418485 A 479.0704641238101 479.0704641238101 0 0 1 127.55945253763713,-21.863563442154486 L 127.51622160554165,-22.8626285483964 A 480.0704641238101 480.0704641238101 0 0 0 24.018736134675446,-6.953439040707552 Z M 163.31802125842827,-23.075545638530173 L 163.2866760557094,-22.076037020124886 A 479.0704641238101 479.0704641238101 0 0 1 266.7500943319022,-7.429523056777523 L 266.0081576777141,-4.522715529407979 L 273.65630133812914,-6.182805451567004 L 267.73934320415293,-11.305266426603582 L 266.99740654996486,-8.398458899234038 A 480.0704641238101 480.0704641238101 0 0 0 163.31802125842827,-23.075545638530173"/><text text-anchor="middle" pointer-events="none" font-size="8px" fill="#000000" x="145.41810939005822" y="-19.802962913474005" font-family="sans-serif">WROTE</text></g><g class="relationship" transform="translate(60.31251883465984 -32.927997624163794) rotate(205.78907037200065)"><path class="outline" fill="#A5ABB6" stroke="none" d="M 25 0.5 L 64.923048009741 0.5 L 64.923048009741 -0.5 L 25 -0.5 Z M 111.813673009741 0.5 L 151.736721019482 0.5 L 151.736721019482 3.5 L 158.736721019482 0 L 151.736721019482 -3.5 L 151.736721019482 -0.5 L 111.813673009741 -0.5 Z"/><text text-anchor="middle" pointer-events="none" font-size="8px" fill="#000000" x="88.368360509741" y="3" transform="rotate(180 88.368360509741 0)" font-family="sans-serif">DIRECTED</text></g><g class="relationship" transform="translate(60.31251883465984 -32.927997624163794) rotate(281.6183488383314)"><path class="outline" fill="#A5ABB6" stroke="none" d="M 25 0.5 L 42.450358317437804 0.5 L 42.450358317437804 -0.5 L 25 -0.5 Z M 89.3409833174378 0.5 L 106.79134163487561 0.5 L 106.79134163487561 3.5 L 113.79134163487561 0 L 106.79134163487561 -3.5 L 106.79134163487561 -0.5 L 89.3409833174378 -0.5 Z"/><text text-anchor="middle" pointer-events="none" font-size="8px" fill="#000000" x="65.8956708174378" y="3" font-family="sans-serif">DIRECTED</text></g><g class="relationship" transform="translate(60.31251883465984 -32.927997624163794) rotate(313.04136540624694)"><path class="outline" fill="#A5ABB6" stroke="none" d="M 25 0.5 L 66.12799215912084 0.5 L 66.12799215912084 -0.5 L 25 -0.5 Z M 113.01861715912084 0.5 L 154.14660931824167 0.5 L 154.14660931824167 3.5 L 161.14660931824167 0 L 154.14660931824167 -3.5 L 154.14660931824167 -0.5 L 113.01861715912084 -0.5 Z"/><text text-anchor="middle" pointer-events="none" font-size="8px" fill="#000000" x="89.57330465912084" y="3" font-family="sans-serif">DIRECTED</text></g><g class="relationship" transform="translate(60.31251883465984 -32.927997624163794) rotate(238.00181848277884)"><path class="outline" fill="#A5ABB6" stroke="none" d="M 25 0.5 L 36.30188828562088 0.5 L 36.30188828562088 -0.5 L 25 -0.5 Z M 83.19251328562089 0.5 L 94.49440157124177 0.5 L 94.49440157124177 3.5 L 101.49440157124177 0 L 94.49440157124177 -3.5 L 94.49440157124177 -0.5 L 83.19251328562089 -0.5 Z"/><text text-anchor="middle" pointer-events="none" font-size="8px" fill="#000000" x="59.74720078562088" y="3" transform="rotate(180 59.74720078562088 0)" font-family="sans-serif">DIRECTED</text></g><g class="relationship" transform="translate(349.84870425270753 -88.78576230554006) rotate(249.33257629881336)"><path class="outline" fill="#A5ABB6" stroke="none" d="M 25 0.5 L 30.704813460380677 0.5 L 30.704813460380677 -0.5 L 25 -0.5 Z M 77.59543846038068 0.5 L 83.30025192076135 0.5 L 83.30025192076135 3.5 L 90.30025192076135 0 L 83.30025192076135 -3.5 L 83.30025192076135 -0.5 L 77.59543846038068 -0.5 Z"/><text text-anchor="middle" pointer-events="none" font-size="8px" fill="#000000" x="54.15012596038068" y="3" transform="rotate(180 54.15012596038068 0)" font-family="sans-serif">DIRECTED</text></g></g><g class="layer nodes"><g class="node" aria-label="graph-node108" transform="translate(-123.42128783958637,-29.73026464512273)"><circle class="outline" cx="0" cy="0" r="25" fill="#C990C0" stroke="#b261a5" stroke-width="2px"/><text class="caption" text-anchor="middle" pointer-events="none" x="0" y="0" font-size="10px" fill="#FFFFFF" font-family="sans-serif"> Tom</text><text class="caption" text-anchor="middle" pointer-events="none" x="0" y="10" font-size="10px" fill="#FFFFFF" font-family="sans-serif"> Tykwer</text></g><g class="node" aria-label="graph-node4" transform="translate(75.99575677448212,-284.2461912755317)"><circle class="outline" cx="0" cy="0" r="25" fill="#C990C0" stroke="#b261a5" stroke-width="2px"/><text class="caption" text-anchor="middle" pointer-events="none" x="0" y="0" font-size="10px" fill="#FFFFFF" font-family="sans-serif"> Hugo</text><text class="caption" text-anchor="middle" pointer-events="none" x="0" y="10" font-size="10px" fill="#FFFFFF" font-family="sans-serif"> Weavi…</text></g><g class="node" aria-label="graph-node105" transform="translate(-105.12435160817321,-112.86437575747823)"><circle class="outline" cx="0" cy="0" r="25" fill="#F79767" stroke="#f36924" stroke-width="2px"/><text class="caption" text-anchor="middle" pointer-events="none" x="0" y="0" font-size="10px" fill="#FFFFFF" font-family="sans-serif"> Cloud</text><text class="caption" text-anchor="middle" pointer-events="none" x="0" y="10" font-size="10px" fill="#FFFFFF" font-family="sans-serif"> Atlas</text></g><g class="node" aria-label="graph-node6" transform="translate(156.34572073004009,-55.876461679825475)"><circle class="outline" cx="0" cy="0" r="25" fill="#C990C0" stroke="#b261a5" stroke-width="2px"/><text class="caption" text-anchor="middle" pointer-events="none" x="0" y="0" font-size="10px" fill="#FFFFFF" font-family="sans-serif"> Lana</text><text class="caption" text-anchor="middle" pointer-events="none" x="0" y="10" font-size="10px" fill="#FFFFFF" font-family="sans-serif"> Wach…</text></g><g class="node" aria-label="graph-node5" transform="translate(60.31251883465984,-32.927997624163794)"><circle class="outline" cx="0" cy="0" r="25" fill="#C990C0" stroke="#b261a5" stroke-width="2px"/><text class="caption" text-anchor="middle" pointer-events="none" x="0" y="0" font-size="10px" fill="#FFFFFF" font-family="sans-serif"> Lilly</text><text class="caption" text-anchor="middle" pointer-events="none" x="0" y="10" font-size="10px" fill="#FFFFFF" font-family="sans-serif"> Wach…</text></g><g class="node" aria-label="graph-node25" transform="translate(349.84870425270753,-88.78576230554006)"><circle class="outline" cx="0" cy="0" r="25" fill="#C990C0" stroke="#b261a5" stroke-width="2px"/><text class="caption" text-anchor="middle" pointer-events="none" x="0" y="0" font-size="10px" fill="#FFFFFF" font-family="sans-serif"> James</text><text class="caption" text-anchor="middle" pointer-events="none" x="0" y="10" font-size="10px" fill="#FFFFFF" font-family="sans-serif"> Marsh…</text></g><g class="node" aria-label="graph-node116" transform="translate(309.15429583503504,-196.66584951595485)"><circle class="outline" cx="0" cy="0" r="25" fill="#F79767" stroke="#f36924" stroke-width="2px"/><text class="caption" text-anchor="middle" pointer-events="none" x="0" y="0" font-size="10px" fill="#FFFFFF" font-family="sans-serif"> V for</text><text class="caption" text-anchor="middle" pointer-events="none" x="0" y="10" font-size="10px" fill="#FFFFFF" font-family="sans-serif"> Vende…</text></g><g class="node" aria-label="graph-node10" transform="translate(88.26393162068382,-168.87561634576574)"><circle class="outline" cx="0" cy="0" r="25" fill="#F79767" stroke="#f36924" stroke-width="2px"/><text class="caption" text-anchor="middle" pointer-events="none" x="0" y="-5" font-size="10px" fill="#FFFFFF" font-family="sans-serif"> The</text><text class="caption" text-anchor="middle" pointer-events="none" x="0" y="5" font-size="10px" fill="#FFFFFF" font-family="sans-serif"> Matrix</text><text class="caption" text-anchor="middle" pointer-events="none" x="0" y="15" font-size="10px" fill="#FFFFFF" font-family="sans-serif"> Rev…</text></g><g class="node" aria-label="graph-node9" transform="translate(187.36245529295988,-168.97531956259823)"><circle class="outline" cx="0" cy="0" r="25" fill="#F79767" stroke="#f36924" stroke-width="2px"/><text class="caption" text-anchor="middle" pointer-events="none" x="0" y="-5" font-size="10px" fill="#FFFFFF" font-family="sans-serif"> The</text><text class="caption" text-anchor="middle" pointer-events="none" x="0" y="5" font-size="10px" fill="#FFFFFF" font-family="sans-serif"> Matrix</text><text class="caption" text-anchor="middle" pointer-events="none" x="0" y="15" font-size="10px" fill="#FFFFFF" font-family="sans-serif"> Rel…</text></g><g class="node" aria-label="graph-node0" transform="translate(-6.715896645768325,-140.2034614872936)"><circle class="outline" cx="0" cy="0" r="25" fill="#F79767" stroke="#f36924" stroke-width="2px"/><text class="caption" text-anchor="middle" pointer-events="none" x="0" y="0" font-size="10px" fill="#FFFFFF" font-family="sans-serif"> The</text><text class="caption" text-anchor="middle" pointer-events="none" x="0" y="10" font-size="10px" fill="#FFFFFF" font-family="sans-serif"> Matrix</text></g></g></svg>